<svg width="428" height="214" viewBox="0 0 428 214" fill="none" xmlns="http://www.w3.org/2000/svg">
<g filter="url(#filter0_d_83_1534)">
<g clip-path="url(#clip0_83_1534)">
<rect x="2" y="1" width="424" height="210" rx="8" fill="white"/>
<g style="mix-blend-mode:multiply">
<rect x="-76.4346" y="-2.94482" width="502.869" height="217.358" fill="url(#paint0_linear_83_1534)"/>
</g>
<path d="M166.374 -41.7419C166.991 -44.201 163.958 -45.8947 162.188 -44.079L124.414 -5.32993C122.137 -2.96829 123.04 0.950724 126.126 2.0934L150.282 11.0391C151.668 11.5523 153.193 10.7491 153.553 9.31634L166.374 -41.7419Z" fill="url(#paint1_linear_83_1534)"/>
<path d="M108.648 -65.1149L149.358 -54.356C153.165 -53.35 154.005 -48.3387 150.731 -46.1666L92.9695 -6.5856C91.0714 -5.28493 88.5775 -7.04288 89.1653 -9.2672L103.069 -61.8826C103.711 -64.3123 106.209 -65.7595 108.648 -65.1149Z" fill="url(#paint2_linear_83_1534)"/>
<path d="M248.552 -20.0239C249.17 -22.483 246.136 -24.1767 244.366 -22.361L206.593 16.3881C204.315 18.7497 205.219 22.6687 208.305 23.8114L232.461 32.7571C233.847 33.2703 235.371 32.4672 235.731 31.0344L248.552 -20.0239Z" fill="url(#paint3_linear_83_1534)"/>
<path d="M190.826 -43.3969L231.537 -32.638C235.343 -31.632 236.184 -26.6206 232.91 -24.4485L175.148 15.1324C173.25 16.4331 170.756 14.6751 171.344 12.4508L185.247 -40.1646C185.89 -42.5943 188.387 -44.0414 190.826 -43.3969Z" fill="url(#paint4_linear_83_1534)"/>
<path d="M330.731 1.69415C331.349 -0.764988 328.315 -2.45865 326.545 -0.642939L288.771 38.1061C286.494 40.4677 287.398 44.3868 290.483 45.5294L314.64 54.4751C316.026 54.9883 317.55 54.1852 317.91 52.7524L330.731 1.69415Z" fill="url(#paint5_linear_83_1534)"/>
<path d="M273.005 -21.6788L313.716 -10.92C317.522 -9.91398 318.362 -4.90262 315.089 -2.73053L257.327 36.8504C255.429 38.1511 252.935 36.3932 253.523 34.1688L267.426 -18.4465C268.068 -20.8763 270.566 -22.3234 273.005 -21.6788Z" fill="url(#paint6_linear_83_1534)"/>
<path d="M412.909 23.4122C413.527 20.953 410.493 19.2594 408.723 21.0751L370.95 59.8241C368.672 62.1858 369.576 66.1048 372.662 67.2475L396.818 76.1931C398.204 76.7063 399.728 75.9032 400.088 74.4704L412.909 23.4122Z" fill="url(#paint7_linear_83_1534)"/>
<path d="M355.183 0.0391795L395.894 10.7981C399.7 11.804 400.54 16.8154 397.267 18.9875L339.505 58.5685C337.607 59.8691 335.113 58.1112 335.701 55.8869L349.604 3.27148C350.246 0.841753 352.744 -0.60541 355.183 0.0391795Z" fill="url(#paint8_linear_83_1534)"/>
<path d="M65.5431 7.117C66.1606 4.65786 63.1269 2.9642 61.357 4.77991L23.5835 43.529C21.306 45.8906 22.2098 49.8096 25.2954 50.9523L49.4519 59.898C50.8377 60.4112 52.3622 59.608 52.7219 58.1752L65.5431 7.117Z" fill="url(#paint9_linear_83_1534)"/>
<path d="M7.81709 -16.256L48.5276 -5.4971C52.334 -4.49113 53.1743 0.520233 49.9006 2.69233L-7.86104 42.2733C-9.75914 43.574 -12.253 41.816 -11.6653 39.5917L2.23821 -13.0237C2.88026 -15.4534 5.37804 -16.9006 7.81709 -16.256Z" fill="url(#paint10_linear_83_1534)"/>
<path d="M147.722 28.835C148.339 26.3759 145.306 24.6822 143.536 26.4979L105.762 65.247C103.485 67.6086 104.389 71.5276 107.474 72.6703L131.631 81.616C133.016 82.1292 134.541 81.3261 134.901 79.8932L147.722 28.835Z" fill="url(#paint11_linear_83_1534)"/>
<path d="M89.9958 5.46203L130.706 16.2209C134.513 17.2269 135.353 22.2383 132.079 24.4103L74.3177 63.9913C72.4196 65.292 69.9257 63.534 70.5135 61.3097L84.4169 8.69433C85.059 6.2646 87.5567 4.81744 89.9958 5.46203Z" fill="url(#paint12_linear_83_1534)"/>
<path d="M229.9 50.553C230.518 48.0939 227.484 46.4002 225.714 48.2159L187.941 86.965C185.663 89.3266 186.567 93.2456 189.653 94.3883L213.809 103.334C215.195 103.847 216.72 103.044 217.079 101.611L229.9 50.553Z" fill="url(#paint13_linear_83_1534)"/>
<path d="M172.175 27.18L212.885 37.9389C216.691 38.9449 217.532 43.9563 214.258 46.1284L156.496 85.7093C154.598 87.01 152.104 85.252 152.692 83.0277L166.596 30.4123C167.238 27.9826 169.735 26.5355 172.175 27.18Z" fill="url(#paint14_linear_83_1534)"/>
<path d="M312.079 72.2711C312.697 69.8119 309.663 68.1183 307.893 69.934L270.12 108.683C267.842 111.045 268.746 114.964 271.832 116.106L295.988 125.052C297.374 125.565 298.898 124.762 299.258 123.329L312.079 72.2711Z" fill="url(#paint15_linear_83_1534)"/>
<path d="M254.353 48.8981L295.064 59.657C298.87 60.6629 299.71 65.6743 296.437 67.8464L238.675 107.427C236.777 108.728 234.283 106.97 234.871 104.746L248.774 52.1304C249.416 49.7006 251.914 48.2535 254.353 48.8981Z" fill="url(#paint16_linear_83_1534)"/>
<path d="M394.257 93.9891C394.875 91.5299 391.841 89.8363 390.071 91.652L352.298 130.401C350.02 132.763 350.924 136.682 354.01 137.824L378.166 146.77C379.552 147.283 381.077 146.48 381.436 145.047L394.257 93.9891Z" fill="url(#paint17_linear_83_1534)"/>
<path d="M336.531 70.6161L377.242 81.375C381.048 82.3809 381.889 87.3923 378.615 89.5644L320.853 129.145C318.955 130.446 316.461 128.688 317.049 126.464L330.953 73.8484C331.595 71.4187 334.092 69.9715 336.531 70.6161Z" fill="url(#paint18_linear_83_1534)"/>
<path d="M46.8912 77.6939C47.5087 75.2348 44.4751 73.5411 42.7051 75.3568L4.93165 114.106C2.65417 116.468 3.55796 120.387 6.64359 121.529L30.8001 130.475C32.1858 130.988 33.7103 130.185 34.0701 128.752L46.8912 77.6939Z" fill="url(#paint19_linear_83_1534)"/>
<path d="M-10.8348 54.3209L29.8757 65.0798C33.6822 66.0858 34.5224 71.0971 31.2488 73.2692L-26.5129 112.85C-28.411 114.151 -30.9049 112.393 -30.3171 110.169L-16.4136 57.5532C-15.7716 55.1235 -13.2738 53.6763 -10.8348 54.3209Z" fill="url(#paint20_linear_83_1534)"/>
<path d="M129.07 99.4119C129.687 96.9528 126.654 95.2591 124.884 97.0748L87.1104 135.824C84.8329 138.186 85.7367 142.105 88.8223 143.247L112.979 152.193C114.365 152.706 115.889 151.903 116.249 150.47L129.07 99.4119Z" fill="url(#paint21_linear_83_1534)"/>
<path d="M71.3439 76.0389L112.054 86.7978C115.861 87.8038 116.701 92.8152 113.427 94.9872L55.6658 134.568C53.7677 135.869 51.2738 134.111 51.8616 131.887L65.7651 79.2712C66.4071 76.8415 68.9049 75.3943 71.3439 76.0389Z" fill="url(#paint22_linear_83_1534)"/>
<path d="M211.249 121.13C211.866 118.671 208.833 116.977 207.063 118.793L169.289 157.542C167.012 159.904 167.915 163.823 171.001 164.965L195.157 173.911C196.543 174.424 198.068 173.621 198.428 172.188L211.249 121.13Z" fill="url(#paint23_linear_83_1534)"/>
<path d="M153.523 97.757L194.233 108.516C198.04 109.522 198.88 114.533 195.606 116.705L137.845 156.286C135.946 157.587 133.453 155.829 134.04 153.605L147.944 100.989C148.586 98.5595 151.084 97.1124 153.523 97.757Z" fill="url(#paint24_linear_83_1534)"/>
<path d="M293.427 142.848C294.045 140.389 291.011 138.695 289.241 140.511L251.468 179.26C249.19 181.622 250.094 185.541 253.18 186.683L277.336 195.629C278.722 196.142 280.246 195.339 280.606 193.906L293.427 142.848Z" fill="url(#paint25_linear_83_1534)"/>
<path d="M235.701 119.475L276.412 130.234C280.218 131.24 281.059 136.251 277.785 138.423L220.023 178.004C218.125 179.305 215.631 177.547 216.219 175.323L230.122 122.707C230.765 120.278 233.262 118.83 235.701 119.475Z" fill="url(#paint26_linear_83_1534)"/>
<path d="M375.606 164.566C376.223 162.107 373.189 160.413 371.419 162.229L333.646 200.978C331.369 203.34 332.272 207.259 335.358 208.401L359.514 217.347C360.9 217.86 362.425 217.057 362.784 215.624L375.606 164.566Z" fill="url(#paint27_linear_83_1534)"/>
<path d="M317.88 141.193L358.59 151.952C362.397 152.958 363.237 157.969 359.963 160.141L302.201 199.722C300.303 201.023 297.809 199.265 298.397 197.041L312.301 144.425C312.943 141.996 315.441 140.548 317.88 141.193Z" fill="url(#paint28_linear_83_1534)"/>
<path d="M28.2389 148.271C28.8564 145.812 25.8227 144.118 24.0528 145.934L-13.7207 184.683C-15.9982 187.044 -15.0944 190.963 -12.0088 192.106L12.1477 201.052C13.5335 201.565 15.058 200.762 15.4177 199.329L28.2389 148.271Z" fill="url(#paint29_linear_83_1534)"/>
<path d="M-29.4871 124.898L11.2234 135.657C15.0298 136.663 15.8701 141.674 12.5964 143.846L-45.1652 183.427C-47.0633 184.728 -49.5572 182.97 -48.9695 180.745L-35.066 128.13C-34.4239 125.7 -31.9262 124.253 -29.4871 124.898Z" fill="url(#paint30_linear_83_1534)"/>
<path d="M110.418 169.989C111.035 167.53 108.001 165.836 106.231 167.652L68.458 206.401C66.1805 208.762 67.0843 212.681 70.17 213.824L94.3264 222.77C95.7122 223.283 97.2367 222.48 97.5965 221.047L110.418 169.989Z" fill="url(#paint31_linear_83_1534)"/>
<path d="M52.6916 146.616L93.4021 157.375C97.2086 158.381 98.0488 163.392 94.7751 165.564L37.0135 205.145C35.1154 206.446 32.6215 204.688 33.2093 202.464L47.1127 149.848C47.7548 147.418 50.2525 145.971 52.6916 146.616Z" fill="url(#paint32_linear_83_1534)"/>
<path d="M192.596 191.707C193.214 189.248 190.18 187.554 188.41 189.37L150.637 228.119C148.359 230.48 149.263 234.399 152.349 235.542L176.505 244.488C177.891 245.001 179.415 244.198 179.775 242.765L192.596 191.707Z" fill="url(#paint33_linear_83_1534)"/>
<path d="M134.87 168.334L175.581 179.093C179.387 180.099 180.227 185.11 176.954 187.282L119.192 226.863C117.294 228.164 114.8 226.406 115.388 224.182L129.291 171.566C129.933 169.136 132.431 167.689 134.87 168.334Z" fill="url(#paint34_linear_83_1534)"/>
<path d="M274.775 213.425C275.393 210.966 272.359 209.272 270.589 211.088L232.815 249.837C230.538 252.198 231.442 256.117 234.527 257.26L258.684 266.206C260.07 266.719 261.594 265.916 261.954 264.483L274.775 213.425Z" fill="url(#paint35_linear_83_1534)"/>
<path d="M217.049 190.052L257.759 200.811C261.566 201.817 262.406 206.828 259.133 209L201.371 248.581C199.473 249.882 196.979 248.124 197.567 245.9L211.47 193.284C212.112 190.854 214.61 189.407 217.049 190.052Z" fill="url(#paint36_linear_83_1534)"/>
<path d="M356.953 235.143C357.571 232.684 354.537 230.99 352.767 232.806L314.994 271.555C312.716 273.916 313.62 277.835 316.706 278.978L340.862 287.924C342.248 288.437 343.772 287.634 344.132 286.201L356.953 235.143Z" fill="url(#paint37_linear_83_1534)"/>
<path d="M299.227 211.77L339.938 222.529C343.744 223.535 344.584 228.546 341.311 230.718L283.549 270.299C281.651 271.6 279.157 269.842 279.745 267.618L293.648 215.002C294.29 212.572 296.788 211.125 299.227 211.77Z" fill="url(#paint38_linear_83_1534)"/>
</g>
</g>
<defs>
<filter id="filter0_d_83_1534" x="0" y="0" width="428" height="214" filterUnits="userSpaceOnUse" color-interpolation-filters="sRGB">
<feFlood flood-opacity="0" result="BackgroundImageFix"/>
<feColorMatrix in="SourceAlpha" type="matrix" values="0 0 0 0 0 0 0 0 0 0 0 0 0 0 0 0 0 0 127 0" result="hardAlpha"/>
<feOffset dy="1"/>
<feGaussianBlur stdDeviation="1"/>
<feComposite in2="hardAlpha" operator="out"/>
<feColorMatrix type="matrix" values="0 0 0 0 0 0 0 0 0 0 0 0 0 0 0 0 0 0 0.05 0"/>
<feBlend mode="normal" in2="BackgroundImageFix" result="effect1_dropShadow_83_1534"/>
<feBlend mode="normal" in="SourceGraphic" in2="effect1_dropShadow_83_1534" result="shape"/>
</filter>
<linearGradient id="paint0_linear_83_1534" x1="-122.7" y1="-20.4183" x2="-84.3993" y2="289.242" gradientUnits="userSpaceOnUse">
<stop stop-color="#EF7952"/>
<stop offset="1" stop-color="#D36540"/>
</linearGradient>
<linearGradient id="paint1_linear_83_1534" x1="155.195" y1="-46.8466" x2="112.838" y2="-5.65285" gradientUnits="userSpaceOnUse">
<stop stop-color="#F9C2B0" stop-opacity="0.11"/>
<stop offset="1" stop-color="#F6ECE8" stop-opacity="0.1"/>
</linearGradient>
<linearGradient id="paint2_linear_83_1534" x1="155.195" y1="-46.8466" x2="112.838" y2="-5.65285" gradientUnits="userSpaceOnUse">
<stop stop-color="#F9C2B0" stop-opacity="0.11"/>
<stop offset="1" stop-color="#F6ECE8" stop-opacity="0.1"/>
</linearGradient>
<linearGradient id="paint3_linear_83_1534" x1="237.374" y1="-25.1286" x2="195.017" y2="16.0652" gradientUnits="userSpaceOnUse">
<stop stop-color="#F9C2B0" stop-opacity="0.11"/>
<stop offset="1" stop-color="#F6ECE8" stop-opacity="0.1"/>
</linearGradient>
<linearGradient id="paint4_linear_83_1534" x1="237.374" y1="-25.1286" x2="195.017" y2="16.0652" gradientUnits="userSpaceOnUse">
<stop stop-color="#F9C2B0" stop-opacity="0.11"/>
<stop offset="1" stop-color="#F6ECE8" stop-opacity="0.1"/>
</linearGradient>
<linearGradient id="paint5_linear_83_1534" x1="319.553" y1="-3.41059" x2="277.195" y2="37.7832" gradientUnits="userSpaceOnUse">
<stop stop-color="#F9C2B0" stop-opacity="0.11"/>
<stop offset="1" stop-color="#F6ECE8" stop-opacity="0.1"/>
</linearGradient>
<linearGradient id="paint6_linear_83_1534" x1="319.553" y1="-3.41059" x2="277.195" y2="37.7832" gradientUnits="userSpaceOnUse">
<stop stop-color="#F9C2B0" stop-opacity="0.11"/>
<stop offset="1" stop-color="#F6ECE8" stop-opacity="0.1"/>
</linearGradient>
<linearGradient id="paint7_linear_83_1534" x1="401.731" y1="18.3074" x2="359.374" y2="59.5012" gradientUnits="userSpaceOnUse">
<stop stop-color="#F9C2B0" stop-opacity="0.11"/>
<stop offset="1" stop-color="#F6ECE8" stop-opacity="0.1"/>
</linearGradient>
<linearGradient id="paint8_linear_83_1534" x1="401.731" y1="18.3074" x2="359.374" y2="59.5012" gradientUnits="userSpaceOnUse">
<stop stop-color="#F9C2B0" stop-opacity="0.11"/>
<stop offset="1" stop-color="#F6ECE8" stop-opacity="0.1"/>
</linearGradient>
<linearGradient id="paint9_linear_83_1534" x1="54.3647" y1="2.01227" x2="12.0075" y2="43.206" gradientUnits="userSpaceOnUse">
<stop stop-color="#F9C2B0" stop-opacity="0.11"/>
<stop offset="1" stop-color="#F6ECE8" stop-opacity="0.1"/>
</linearGradient>
<linearGradient id="paint10_linear_83_1534" x1="54.3647" y1="2.01227" x2="12.0075" y2="43.206" gradientUnits="userSpaceOnUse">
<stop stop-color="#F9C2B0" stop-opacity="0.11"/>
<stop offset="1" stop-color="#F6ECE8" stop-opacity="0.1"/>
</linearGradient>
<linearGradient id="paint11_linear_83_1534" x1="136.543" y1="23.7303" x2="94.1862" y2="64.9241" gradientUnits="userSpaceOnUse">
<stop stop-color="#F9C2B0" stop-opacity="0.11"/>
<stop offset="1" stop-color="#F6ECE8" stop-opacity="0.1"/>
</linearGradient>
<linearGradient id="paint12_linear_83_1534" x1="136.543" y1="23.7303" x2="94.1862" y2="64.9241" gradientUnits="userSpaceOnUse">
<stop stop-color="#F9C2B0" stop-opacity="0.11"/>
<stop offset="1" stop-color="#F6ECE8" stop-opacity="0.1"/>
</linearGradient>
<linearGradient id="paint13_linear_83_1534" x1="218.722" y1="45.4483" x2="176.365" y2="86.6421" gradientUnits="userSpaceOnUse">
<stop stop-color="#F9C2B0" stop-opacity="0.11"/>
<stop offset="1" stop-color="#F6ECE8" stop-opacity="0.1"/>
</linearGradient>
<linearGradient id="paint14_linear_83_1534" x1="218.722" y1="45.4483" x2="176.365" y2="86.6421" gradientUnits="userSpaceOnUse">
<stop stop-color="#F9C2B0" stop-opacity="0.11"/>
<stop offset="1" stop-color="#F6ECE8" stop-opacity="0.1"/>
</linearGradient>
<linearGradient id="paint15_linear_83_1534" x1="300.901" y1="67.1663" x2="258.544" y2="108.36" gradientUnits="userSpaceOnUse">
<stop stop-color="#F9C2B0" stop-opacity="0.11"/>
<stop offset="1" stop-color="#F6ECE8" stop-opacity="0.1"/>
</linearGradient>
<linearGradient id="paint16_linear_83_1534" x1="300.901" y1="67.1663" x2="258.544" y2="108.36" gradientUnits="userSpaceOnUse">
<stop stop-color="#F9C2B0" stop-opacity="0.11"/>
<stop offset="1" stop-color="#F6ECE8" stop-opacity="0.1"/>
</linearGradient>
<linearGradient id="paint17_linear_83_1534" x1="383.079" y1="88.8843" x2="340.722" y2="130.078" gradientUnits="userSpaceOnUse">
<stop stop-color="#F9C2B0" stop-opacity="0.11"/>
<stop offset="1" stop-color="#F6ECE8" stop-opacity="0.1"/>
</linearGradient>
<linearGradient id="paint18_linear_83_1534" x1="383.079" y1="88.8843" x2="340.722" y2="130.078" gradientUnits="userSpaceOnUse">
<stop stop-color="#F9C2B0" stop-opacity="0.11"/>
<stop offset="1" stop-color="#F6ECE8" stop-opacity="0.1"/>
</linearGradient>
<linearGradient id="paint19_linear_83_1534" x1="35.7129" y1="72.5892" x2="-6.64436" y2="113.783" gradientUnits="userSpaceOnUse">
<stop stop-color="#F9C2B0" stop-opacity="0.11"/>
<stop offset="1" stop-color="#F6ECE8" stop-opacity="0.1"/>
</linearGradient>
<linearGradient id="paint20_linear_83_1534" x1="35.7129" y1="72.5892" x2="-6.64436" y2="113.783" gradientUnits="userSpaceOnUse">
<stop stop-color="#F9C2B0" stop-opacity="0.11"/>
<stop offset="1" stop-color="#F6ECE8" stop-opacity="0.1"/>
</linearGradient>
<linearGradient id="paint21_linear_83_1534" x1="117.892" y1="94.3072" x2="75.5344" y2="135.501" gradientUnits="userSpaceOnUse">
<stop stop-color="#F9C2B0" stop-opacity="0.11"/>
<stop offset="1" stop-color="#F6ECE8" stop-opacity="0.1"/>
</linearGradient>
<linearGradient id="paint22_linear_83_1534" x1="117.892" y1="94.3072" x2="75.5344" y2="135.501" gradientUnits="userSpaceOnUse">
<stop stop-color="#F9C2B0" stop-opacity="0.11"/>
<stop offset="1" stop-color="#F6ECE8" stop-opacity="0.1"/>
</linearGradient>
<linearGradient id="paint23_linear_83_1534" x1="200.07" y1="116.025" x2="157.713" y2="157.219" gradientUnits="userSpaceOnUse">
<stop stop-color="#F9C2B0" stop-opacity="0.11"/>
<stop offset="1" stop-color="#F6ECE8" stop-opacity="0.1"/>
</linearGradient>
<linearGradient id="paint24_linear_83_1534" x1="200.07" y1="116.025" x2="157.713" y2="157.219" gradientUnits="userSpaceOnUse">
<stop stop-color="#F9C2B0" stop-opacity="0.11"/>
<stop offset="1" stop-color="#F6ECE8" stop-opacity="0.1"/>
</linearGradient>
<linearGradient id="paint25_linear_83_1534" x1="282.249" y1="137.743" x2="239.892" y2="178.937" gradientUnits="userSpaceOnUse">
<stop stop-color="#F9C2B0" stop-opacity="0.11"/>
<stop offset="1" stop-color="#F6ECE8" stop-opacity="0.1"/>
</linearGradient>
<linearGradient id="paint26_linear_83_1534" x1="282.249" y1="137.743" x2="239.892" y2="178.937" gradientUnits="userSpaceOnUse">
<stop stop-color="#F9C2B0" stop-opacity="0.11"/>
<stop offset="1" stop-color="#F6ECE8" stop-opacity="0.1"/>
</linearGradient>
<linearGradient id="paint27_linear_83_1534" x1="364.427" y1="159.461" x2="322.07" y2="200.655" gradientUnits="userSpaceOnUse">
<stop stop-color="#F9C2B0" stop-opacity="0.11"/>
<stop offset="1" stop-color="#F6ECE8" stop-opacity="0.1"/>
</linearGradient>
<linearGradient id="paint28_linear_83_1534" x1="364.427" y1="159.461" x2="322.07" y2="200.655" gradientUnits="userSpaceOnUse">
<stop stop-color="#F9C2B0" stop-opacity="0.11"/>
<stop offset="1" stop-color="#F6ECE8" stop-opacity="0.1"/>
</linearGradient>
<linearGradient id="paint29_linear_83_1534" x1="17.0605" y1="143.166" x2="-25.2967" y2="184.36" gradientUnits="userSpaceOnUse">
<stop stop-color="#F9C2B0" stop-opacity="0.11"/>
<stop offset="1" stop-color="#F6ECE8" stop-opacity="0.1"/>
</linearGradient>
<linearGradient id="paint30_linear_83_1534" x1="17.0605" y1="143.166" x2="-25.2967" y2="184.36" gradientUnits="userSpaceOnUse">
<stop stop-color="#F9C2B0" stop-opacity="0.11"/>
<stop offset="1" stop-color="#F6ECE8" stop-opacity="0.1"/>
</linearGradient>
<linearGradient id="paint31_linear_83_1534" x1="99.2393" y1="164.884" x2="56.882" y2="206.078" gradientUnits="userSpaceOnUse">
<stop stop-color="#F9C2B0" stop-opacity="0.11"/>
<stop offset="1" stop-color="#F6ECE8" stop-opacity="0.1"/>
</linearGradient>
<linearGradient id="paint32_linear_83_1534" x1="99.2393" y1="164.884" x2="56.882" y2="206.078" gradientUnits="userSpaceOnUse">
<stop stop-color="#F9C2B0" stop-opacity="0.11"/>
<stop offset="1" stop-color="#F6ECE8" stop-opacity="0.1"/>
</linearGradient>
<linearGradient id="paint33_linear_83_1534" x1="181.418" y1="186.602" x2="139.061" y2="227.796" gradientUnits="userSpaceOnUse">
<stop stop-color="#F9C2B0" stop-opacity="0.11"/>
<stop offset="1" stop-color="#F6ECE8" stop-opacity="0.1"/>
</linearGradient>
<linearGradient id="paint34_linear_83_1534" x1="181.418" y1="186.602" x2="139.061" y2="227.796" gradientUnits="userSpaceOnUse">
<stop stop-color="#F9C2B0" stop-opacity="0.11"/>
<stop offset="1" stop-color="#F6ECE8" stop-opacity="0.1"/>
</linearGradient>
<linearGradient id="paint35_linear_83_1534" x1="263.597" y1="208.32" x2="221.239" y2="249.514" gradientUnits="userSpaceOnUse">
<stop stop-color="#F9C2B0" stop-opacity="0.11"/>
<stop offset="1" stop-color="#F6ECE8" stop-opacity="0.1"/>
</linearGradient>
<linearGradient id="paint36_linear_83_1534" x1="263.597" y1="208.32" x2="221.239" y2="249.514" gradientUnits="userSpaceOnUse">
<stop stop-color="#F9C2B0" stop-opacity="0.11"/>
<stop offset="1" stop-color="#F6ECE8" stop-opacity="0.1"/>
</linearGradient>
<linearGradient id="paint37_linear_83_1534" x1="345.775" y1="230.038" x2="303.418" y2="271.232" gradientUnits="userSpaceOnUse">
<stop stop-color="#F9C2B0" stop-opacity="0.11"/>
<stop offset="1" stop-color="#F6ECE8" stop-opacity="0.1"/>
</linearGradient>
<linearGradient id="paint38_linear_83_1534" x1="345.775" y1="230.038" x2="303.418" y2="271.232" gradientUnits="userSpaceOnUse">
<stop stop-color="#F9C2B0" stop-opacity="0.11"/>
<stop offset="1" stop-color="#F6ECE8" stop-opacity="0.1"/>
</linearGradient>
<clipPath id="clip0_83_1534">
<rect x="2" y="1" width="424" height="210" rx="8" fill="white"/>
</clipPath>
</defs>
</svg>
