<svg width="328" height="112" viewBox="0 0 328 112" fill="none" xmlns="http://www.w3.org/2000/svg">
<mask id="path-1-inside-1_47_901" fill="white">
<path fill-rule="evenodd" clip-rule="evenodd" d="M164 2.33887C154.246 2.33887 146.339 10.2459 146.339 19.9998C146.339 29.7536 154.246 37.6605 164 37.6605C173.754 37.6605 181.661 29.7536 181.661 19.9998C181.661 10.2459 173.754 2.33887 164 2.33887ZM154.287 8.40152C156.915 6.19861 160.302 4.87221 164 4.87221C172.354 4.87221 179.127 11.645 179.127 19.9998C179.127 23.697 177.801 27.0845 175.598 29.7123L154.287 8.40152ZM152.402 10.2871C150.199 12.915 148.872 16.3025 148.872 19.9998C148.872 28.3544 155.645 35.1272 164 35.1272C167.697 35.1272 171.085 33.8008 173.712 31.5979L152.402 10.2871Z"/>
</mask>
<path fill-rule="evenodd" clip-rule="evenodd" d="M164 2.33887C154.246 2.33887 146.339 10.2459 146.339 19.9998C146.339 29.7536 154.246 37.6605 164 37.6605C173.754 37.6605 181.661 29.7536 181.661 19.9998C181.661 10.2459 173.754 2.33887 164 2.33887ZM154.287 8.40152C156.915 6.19861 160.302 4.87221 164 4.87221C172.354 4.87221 179.127 11.645 179.127 19.9998C179.127 23.697 177.801 27.0845 175.598 29.7123L154.287 8.40152ZM152.402 10.2871C150.199 12.915 148.872 16.3025 148.872 19.9998C148.872 28.3544 155.645 35.1272 164 35.1272C167.697 35.1272 171.085 33.8008 173.712 31.5979L152.402 10.2871Z" fill="#FAFAFA"/>
<path d="M154.287 8.40152L151.717 5.33614L148.371 8.14181L151.459 11.2299L154.287 8.40152ZM175.598 29.7123L172.769 32.5407L175.858 35.6288L178.663 32.282L175.598 29.7123ZM152.402 10.2871L155.23 7.45872L152.142 4.37059L149.336 7.71743L152.402 10.2871ZM173.712 31.5979L176.282 34.6632L179.629 31.8575L176.541 28.7694L173.712 31.5979ZM164 -1.66113C152.037 -1.66113 142.339 8.03678 142.339 19.9998H150.339C150.339 12.4551 156.455 6.33887 164 6.33887V-1.66113ZM142.339 19.9998C142.339 31.9628 152.037 41.6605 164 41.6605V33.6605C156.455 33.6605 150.339 27.5444 150.339 19.9998H142.339ZM164 41.6605C175.963 41.6605 185.661 31.9627 185.661 19.9998H177.661C177.661 27.5445 171.544 33.6605 164 33.6605V41.6605ZM185.661 19.9998C185.661 8.03682 175.963 -1.66113 164 -1.66113V6.33887C171.544 6.33887 177.661 12.455 177.661 19.9998H185.661ZM156.857 11.4669C158.791 9.84519 161.277 8.87221 164 8.87221V0.872214C159.328 0.872214 155.039 2.55204 151.717 5.33614L156.857 11.4669ZM164 8.87221C170.145 8.87221 175.127 13.8542 175.127 19.9998H183.127C183.127 9.43592 174.564 0.872214 164 0.872214V8.87221ZM175.127 19.9998C175.127 22.7228 174.154 25.2081 172.533 27.1425L178.663 32.282C181.447 28.961 183.127 24.6713 183.127 19.9998H175.127ZM178.426 26.8838L157.116 5.57309L151.459 11.2299L172.769 32.5407L178.426 26.8838ZM149.336 7.71743C146.552 11.0385 144.872 15.3282 144.872 19.9998H152.872C152.872 17.2767 153.845 14.7914 155.467 12.8569L149.336 7.71743ZM144.872 19.9998C144.872 30.5636 153.436 39.1272 164 39.1272V31.1272C157.854 31.1272 152.872 26.1452 152.872 19.9998H144.872ZM164 39.1272C168.671 39.1272 172.961 37.4474 176.282 34.6632L171.142 28.5325C169.208 30.1542 166.723 31.1272 164 31.1272V39.1272ZM176.541 28.7694L155.23 7.45872L149.573 13.1156L170.884 34.4263L176.541 28.7694Z" fill="#A1A1AA" mask="url(#path-1-inside-1_47_901)"/>
<path d="M53.049 63.9091V77H50.9396L44.7713 68.0831H44.6626V77H42.2912V63.9091H44.4134L50.5753 72.8324H50.6903V63.9091H53.049ZM59.8134 77.1918C58.8546 77.1918 58.0236 76.9808 57.3205 76.5589C56.6174 76.1371 56.0719 75.5469 55.6841 74.7884C55.3006 74.0298 55.1088 73.1435 55.1088 72.1293C55.1088 71.1151 55.3006 70.2266 55.6841 69.4638C56.0719 68.701 56.6174 68.1087 57.3205 67.6868C58.0236 67.2649 58.8546 67.054 59.8134 67.054C60.7722 67.054 61.6032 67.2649 62.3063 67.6868C63.0094 68.1087 63.5527 68.701 63.9363 69.4638C64.324 70.2266 64.5179 71.1151 64.5179 72.1293C64.5179 73.1435 64.324 74.0298 63.9363 74.7884C63.5527 75.5469 63.0094 76.1371 62.3063 76.5589C61.6032 76.9808 60.7722 77.1918 59.8134 77.1918ZM59.8262 75.3381C60.3461 75.3381 60.7807 75.1953 61.1301 74.9098C61.4796 74.62 61.7395 74.2322 61.91 73.7464C62.0847 73.2607 62.1721 72.7195 62.1721 72.1229C62.1721 71.522 62.0847 70.9787 61.91 70.4929C61.7395 70.0028 61.4796 69.6129 61.1301 69.3232C60.7807 69.0334 60.3461 68.8885 59.8262 68.8885C59.2935 68.8885 58.8503 69.0334 58.4966 69.3232C58.1472 69.6129 57.8851 70.0028 57.7104 70.4929C57.54 70.9787 57.4547 71.522 57.4547 72.1229C57.4547 72.7195 57.54 73.2607 57.7104 73.7464C57.8851 74.2322 58.1472 74.62 58.4966 74.9098C58.8503 75.1953 59.2935 75.3381 59.8262 75.3381ZM72.7301 77H70.1989L74.8075 63.9091H77.7351L82.3501 77H79.8189L76.3224 66.5938H76.2202L72.7301 77ZM72.8132 71.8672H79.7166V73.772H72.8132V71.8672ZM87.956 77.1918C86.9759 77.1918 86.1342 76.9766 85.4311 76.5462C84.7322 76.1158 84.1932 75.5213 83.8139 74.7628C83.4389 74 83.2514 73.1222 83.2514 72.1293C83.2514 71.1321 83.4432 70.2521 83.8267 69.4893C84.2102 68.7223 84.7514 68.1257 85.4503 67.6996C86.1534 67.2692 86.9844 67.054 87.9432 67.054C88.7401 67.054 89.4453 67.201 90.0589 67.495C90.6768 67.7848 91.169 68.196 91.5355 68.7287C91.902 69.2571 92.1108 69.875 92.1619 70.5824H89.9503C89.8608 70.1094 89.6477 69.7152 89.3111 69.3999C88.9787 69.0803 88.5334 68.9205 87.9751 68.9205C87.5021 68.9205 87.0866 69.0483 86.7287 69.304C86.3707 69.5554 86.0916 69.9176 85.8913 70.3906C85.6953 70.8636 85.5973 71.4304 85.5973 72.0909C85.5973 72.7599 85.6953 73.3352 85.8913 73.8168C86.0874 74.294 86.3622 74.6626 86.7159 74.9226C87.0739 75.1783 87.4936 75.3061 87.9751 75.3061C88.3161 75.3061 88.6207 75.2422 88.8892 75.1143C89.1619 74.9822 89.3899 74.7926 89.5732 74.5455C89.7564 74.2983 89.8821 73.9979 89.9503 73.6442H92.1619C92.1065 74.3388 91.902 74.9545 91.5483 75.4915C91.1946 76.0241 90.7131 76.4418 90.1037 76.7443C89.4943 77.0426 88.7784 77.1918 87.956 77.1918ZM98.9647 67.1818V68.9716H93.3205V67.1818H98.9647ZM94.714 64.8295H97.0279V74.0469C97.0279 74.358 97.0748 74.5966 97.1685 74.7628C97.2665 74.9247 97.3944 75.0355 97.552 75.0952C97.7097 75.1548 97.8844 75.1847 98.0762 75.1847C98.2211 75.1847 98.3532 75.174 98.4725 75.1527C98.5961 75.1314 98.6898 75.1122 98.7537 75.0952L99.1436 76.9041C99.0201 76.9467 98.8432 76.9936 98.6131 77.0447C98.3873 77.0959 98.1103 77.1257 97.7821 77.1342C97.2026 77.1513 96.6806 77.0639 96.2161 76.8722C95.7516 76.6761 95.383 76.3736 95.1103 75.9645C94.8418 75.5554 94.7097 75.044 94.714 74.4304V64.8295ZM100.9 77V67.1818H103.214V77H100.9ZM102.063 65.7884C101.697 65.7884 101.381 65.6669 101.117 65.424C100.853 65.1768 100.721 64.8807 100.721 64.5355C100.721 64.1861 100.853 63.8899 101.117 63.647C101.381 63.3999 101.697 63.2763 102.063 63.2763C102.434 63.2763 102.749 63.3999 103.009 63.647C103.273 63.8899 103.406 64.1861 103.406 64.5355C103.406 64.8807 103.273 65.1768 103.009 65.424C102.749 65.6669 102.434 65.7884 102.063 65.7884ZM114.363 67.1818L110.867 77H108.31L104.813 67.1818H107.281L109.537 74.4751H109.639L111.902 67.1818H114.363ZM119.977 77.1918C118.993 77.1918 118.142 76.9872 117.426 76.5781C116.715 76.1648 116.167 75.581 115.784 74.8267C115.4 74.0682 115.208 73.1754 115.208 72.1484C115.208 71.1385 115.4 70.2521 115.784 69.4893C116.172 68.7223 116.713 68.1257 117.407 67.6996C118.102 67.2692 118.918 67.054 119.855 67.054C120.461 67.054 121.032 67.152 121.569 67.348C122.11 67.5398 122.587 67.8381 123 68.2429C123.418 68.6477 123.746 69.1634 123.985 69.7898C124.223 70.4119 124.343 71.1534 124.343 72.0142V72.7237H116.295V71.1641H122.125C122.12 70.7209 122.025 70.3267 121.837 69.9815C121.65 69.6321 121.387 69.3572 121.051 69.157C120.718 68.9567 120.331 68.8565 119.887 68.8565C119.414 68.8565 118.999 68.9716 118.641 69.2017C118.283 69.4276 118.004 69.7259 117.804 70.0966C117.608 70.4631 117.507 70.8658 117.503 71.3047V72.6662C117.503 73.2372 117.608 73.7273 117.816 74.1364C118.025 74.5412 118.317 74.8523 118.692 75.0696C119.067 75.2827 119.506 75.3892 120.009 75.3892C120.346 75.3892 120.65 75.3423 120.923 75.2486C121.196 75.1506 121.432 75.0078 121.632 74.8203C121.833 74.6328 121.984 74.4006 122.086 74.1236L124.247 74.3665C124.11 74.9375 123.85 75.4361 123.467 75.8622C123.088 76.2841 122.602 76.6122 122.01 76.8466C121.417 77.0767 120.74 77.1918 119.977 77.1918ZM131.644 63.2955L127.425 78.9688H125.399L129.618 63.2955H131.644ZM133.223 77V63.9091H138.132C139.138 63.9091 139.981 64.0966 140.663 64.4716C141.349 64.8466 141.867 65.3622 142.216 66.0185C142.57 66.6705 142.747 67.4119 142.747 68.2429C142.747 69.0824 142.57 69.8281 142.216 70.4801C141.863 71.1321 141.341 71.6456 140.65 72.0206C139.96 72.3913 139.11 72.5767 138.1 72.5767H134.846V70.6271H137.78C138.368 70.6271 138.85 70.5249 139.225 70.3203C139.6 70.1158 139.877 69.8345 140.056 69.4766C140.239 69.1186 140.331 68.7074 140.331 68.2429C140.331 67.7784 140.239 67.3693 140.056 67.0156C139.877 66.6619 139.598 66.3871 139.219 66.1911C138.844 65.9908 138.36 65.8906 137.768 65.8906H135.594V77H133.223ZM147.354 77.1982C146.732 77.1982 146.172 77.0874 145.673 76.8658C145.179 76.6399 144.787 76.3075 144.497 75.8686C144.211 75.4297 144.069 74.8885 144.069 74.245C144.069 73.6911 144.171 73.233 144.375 72.8707C144.58 72.5085 144.859 72.2188 145.213 72.0014C145.566 71.7841 145.965 71.62 146.408 71.5092C146.855 71.3942 147.318 71.3111 147.795 71.2599C148.37 71.2003 148.837 71.147 149.195 71.1001C149.553 71.049 149.813 70.9723 149.975 70.87C150.141 70.7635 150.224 70.5994 150.224 70.3778V70.3395C150.224 69.858 150.081 69.4851 149.796 69.2209C149.51 68.9567 149.099 68.8246 148.562 68.8246C147.995 68.8246 147.546 68.9482 147.213 69.1953C146.885 69.4425 146.664 69.7344 146.549 70.071L144.388 69.7642C144.559 69.1676 144.84 68.669 145.232 68.2685C145.624 67.8636 146.103 67.5611 146.67 67.3608C147.237 67.1562 147.863 67.054 148.549 67.054C149.022 67.054 149.493 67.1094 149.962 67.2202C150.431 67.331 150.859 67.5142 151.247 67.7699C151.635 68.0213 151.946 68.3643 152.18 68.799C152.419 69.2337 152.538 69.777 152.538 70.429V77H150.314V75.6513H150.237C150.096 75.924 149.898 76.1797 149.642 76.4183C149.391 76.6527 149.074 76.8423 148.69 76.9872C148.311 77.1278 147.865 77.1982 147.354 77.1982ZM147.955 75.4979C148.419 75.4979 148.822 75.4062 149.163 75.223C149.504 75.0355 149.766 74.7884 149.949 74.4815C150.137 74.1747 150.23 73.8402 150.23 73.478V72.321C150.158 72.3807 150.034 72.4361 149.86 72.4872C149.689 72.5384 149.498 72.5831 149.284 72.6214C149.071 72.6598 148.86 72.6939 148.652 72.7237C148.443 72.7536 148.262 72.7791 148.108 72.8004C147.763 72.8473 147.454 72.924 147.181 73.0305C146.909 73.1371 146.694 73.2862 146.536 73.478C146.378 73.6655 146.299 73.9084 146.299 74.2067C146.299 74.6328 146.455 74.9545 146.766 75.1719C147.077 75.3892 147.473 75.4979 147.955 75.4979ZM162.625 69.777L160.515 70.0071C160.456 69.794 160.351 69.5938 160.202 69.4062C160.057 69.2188 159.861 69.0675 159.614 68.9524C159.367 68.8374 159.064 68.7798 158.706 68.7798C158.225 68.7798 157.82 68.8842 157.492 69.093C157.168 69.3018 157.008 69.5724 157.012 69.9048C157.008 70.1903 157.113 70.4226 157.326 70.6016C157.543 70.7805 157.901 70.9276 158.4 71.0426L160.074 71.4006C161.003 71.6009 161.694 71.9183 162.145 72.353C162.601 72.7876 162.831 73.3565 162.836 74.0597C162.831 74.6776 162.65 75.223 162.292 75.696C161.939 76.1648 161.446 76.5312 160.816 76.7955C160.185 77.0597 159.461 77.1918 158.642 77.1918C157.441 77.1918 156.473 76.9403 155.74 76.4375C155.007 75.9304 154.571 75.2251 154.43 74.3217L156.686 74.1044C156.789 74.5476 157.006 74.8821 157.338 75.108C157.671 75.3338 158.103 75.4467 158.636 75.4467C159.186 75.4467 159.627 75.3338 159.959 75.108C160.296 74.8821 160.464 74.603 160.464 74.2706C160.464 73.9893 160.355 73.7571 160.138 73.5739C159.925 73.3906 159.593 73.25 159.141 73.152L157.466 72.8004C156.525 72.6044 155.828 72.2741 155.376 71.8097C154.924 71.3409 154.701 70.7486 154.705 70.0327C154.701 69.4276 154.865 68.9034 155.197 68.4602C155.534 68.0128 156 67.6676 156.597 67.4247C157.198 67.1776 157.89 67.054 158.674 67.054C159.825 67.054 160.73 67.299 161.391 67.7891C162.056 68.2791 162.467 68.9418 162.625 69.777ZM169.646 67.1818V68.9716H164.002V67.1818H169.646ZM165.396 64.8295H167.71V74.0469C167.71 74.358 167.756 74.5966 167.85 74.7628C167.948 74.9247 168.076 75.0355 168.234 75.0952C168.391 75.1548 168.566 75.1847 168.758 75.1847C168.903 75.1847 169.035 75.174 169.154 75.1527C169.278 75.1314 169.371 75.1122 169.435 75.0952L169.825 76.9041C169.702 76.9467 169.525 76.9936 169.295 77.0447C169.069 77.0959 168.792 77.1257 168.464 77.1342C167.884 77.1513 167.362 77.0639 166.898 76.8722C166.433 76.6761 166.065 76.3736 165.792 75.9645C165.523 75.5554 165.391 75.044 165.396 74.4304V64.8295ZM180.329 77.1918C179.37 77.1918 178.539 76.9808 177.836 76.5589C177.133 76.1371 176.588 75.5469 176.2 74.7884C175.816 74.0298 175.624 73.1435 175.624 72.1293C175.624 71.1151 175.816 70.2266 176.2 69.4638C176.588 68.701 177.133 68.1087 177.836 67.6868C178.539 67.2649 179.37 67.054 180.329 67.054C181.288 67.054 182.119 67.2649 182.822 67.6868C183.525 68.1087 184.068 68.701 184.452 69.4638C184.84 70.2266 185.034 71.1151 185.034 72.1293C185.034 73.1435 184.84 74.0298 184.452 74.7884C184.068 75.5469 183.525 76.1371 182.822 76.5589C182.119 76.9808 181.288 77.1918 180.329 77.1918ZM180.342 75.3381C180.862 75.3381 181.296 75.1953 181.646 74.9098C181.995 74.62 182.255 74.2322 182.426 73.7464C182.6 73.2607 182.688 72.7195 182.688 72.1229C182.688 71.522 182.6 70.9787 182.426 70.4929C182.255 70.0028 181.995 69.6129 181.646 69.3232C181.296 69.0334 180.862 68.8885 180.342 68.8885C179.809 68.8885 179.366 69.0334 179.012 69.3232C178.663 69.6129 178.401 70.0028 178.226 70.4929C178.056 70.9787 177.97 71.522 177.97 72.1229C177.97 72.7195 178.056 73.2607 178.226 73.7464C178.401 74.2322 178.663 74.62 179.012 74.9098C179.366 75.1953 179.809 75.3381 180.342 75.3381ZM186.998 77V67.1818H189.241V68.8182H189.343C189.522 68.2514 189.829 67.8146 190.264 67.5078C190.703 67.1967 191.203 67.0412 191.766 67.0412C191.894 67.0412 192.037 67.0476 192.194 67.0604C192.356 67.0689 192.49 67.0838 192.597 67.1051V69.2337C192.499 69.1996 192.343 69.1697 192.13 69.1442C191.922 69.1143 191.719 69.0994 191.523 69.0994C191.101 69.0994 190.722 69.1911 190.385 69.3743C190.053 69.5533 189.791 69.8026 189.599 70.1222C189.407 70.4418 189.311 70.8104 189.311 71.228V77H186.998ZM197.373 77.1726C196.602 77.1726 195.912 76.9744 195.302 76.5781C194.693 76.1818 194.211 75.6065 193.858 74.8523C193.504 74.098 193.327 73.1818 193.327 72.1037C193.327 71.0128 193.506 70.0923 193.864 69.3423C194.226 68.5881 194.714 68.0192 195.328 67.6357C195.942 67.2479 196.626 67.054 197.38 67.054C197.955 67.054 198.428 67.152 198.799 67.348C199.17 67.5398 199.464 67.772 199.681 68.0447C199.898 68.3132 200.067 68.5668 200.186 68.8054H200.282V63.9091H202.602V77H200.327V75.4531H200.186C200.067 75.6918 199.894 75.9453 199.668 76.2138C199.442 76.478 199.144 76.7038 198.773 76.8913C198.403 77.0788 197.936 77.1726 197.373 77.1726ZM198.019 75.2741C198.509 75.2741 198.927 75.142 199.272 74.8778C199.617 74.6094 199.879 74.2365 200.058 73.7592C200.237 73.282 200.327 72.7259 200.327 72.0909C200.327 71.456 200.237 70.9041 200.058 70.4354C199.883 69.9666 199.623 69.6023 199.278 69.3423C198.937 69.0824 198.518 68.9524 198.019 68.9524C197.503 68.9524 197.073 69.0866 196.728 69.3551C196.383 69.6236 196.123 69.9943 195.948 70.4673C195.773 70.9403 195.686 71.4815 195.686 72.0909C195.686 72.7045 195.773 73.2521 195.948 73.7337C196.127 74.2109 196.389 74.5881 196.734 74.8651C197.084 75.1378 197.512 75.2741 198.019 75.2741ZM209.414 77.1918C208.43 77.1918 207.58 76.9872 206.864 76.5781C206.152 76.1648 205.605 75.581 205.221 74.8267C204.838 74.0682 204.646 73.1754 204.646 72.1484C204.646 71.1385 204.838 70.2521 205.221 69.4893C205.609 68.7223 206.15 68.1257 206.845 67.6996C207.539 67.2692 208.355 67.054 209.293 67.054C209.898 67.054 210.469 67.152 211.006 67.348C211.547 67.5398 212.025 67.8381 212.438 68.2429C212.855 68.6477 213.184 69.1634 213.422 69.7898C213.661 70.4119 213.78 71.1534 213.78 72.0142V72.7237H205.733V71.1641H211.562C211.558 70.7209 211.462 70.3267 211.275 69.9815C211.087 69.6321 210.825 69.3572 210.488 69.157C210.156 68.9567 209.768 68.8565 209.325 68.8565C208.852 68.8565 208.436 68.9716 208.078 69.2017C207.721 69.4276 207.441 69.7259 207.241 70.0966C207.045 70.4631 206.945 70.8658 206.941 71.3047V72.6662C206.941 73.2372 207.045 73.7273 207.254 74.1364C207.463 74.5412 207.755 74.8523 208.13 75.0696C208.505 75.2827 208.944 75.3892 209.446 75.3892C209.783 75.3892 210.088 75.3423 210.36 75.2486C210.633 75.1506 210.87 75.0078 211.07 74.8203C211.27 74.6328 211.422 74.4006 211.524 74.1236L213.684 74.3665C213.548 74.9375 213.288 75.4361 212.904 75.8622C212.525 76.2841 212.039 76.6122 211.447 76.8466C210.855 77.0767 210.177 77.1918 209.414 77.1918ZM215.738 77V67.1818H217.981V68.8182H218.084C218.263 68.2514 218.569 67.8146 219.004 67.5078C219.443 67.1967 219.944 67.0412 220.506 67.0412C220.634 67.0412 220.777 67.0476 220.934 67.0604C221.096 67.0689 221.231 67.0838 221.337 67.1051V69.2337C221.239 69.1996 221.084 69.1697 220.871 69.1442C220.662 69.1143 220.459 69.0994 220.263 69.0994C219.841 69.0994 219.462 69.1911 219.126 69.3743C218.793 69.5533 218.531 69.8026 218.339 70.1222C218.148 70.4418 218.052 70.8104 218.052 71.228V77H215.738ZM230.634 69.777L228.525 70.0071C228.465 69.794 228.361 69.5938 228.212 69.4062C228.067 69.2188 227.871 69.0675 227.624 68.9524C227.377 68.8374 227.074 68.7798 226.716 68.7798C226.235 68.7798 225.83 68.8842 225.502 69.093C225.178 69.3018 225.018 69.5724 225.022 69.9048C225.018 70.1903 225.122 70.4226 225.335 70.6016C225.553 70.7805 225.911 70.9276 226.409 71.0426L228.084 71.4006C229.013 71.6009 229.703 71.9183 230.155 72.353C230.611 72.7876 230.841 73.3565 230.845 74.0597C230.841 74.6776 230.66 75.223 230.302 75.696C229.948 76.1648 229.456 76.5312 228.825 76.7955C228.195 77.0597 227.47 77.1918 226.652 77.1918C225.45 77.1918 224.483 76.9403 223.75 76.4375C223.017 75.9304 222.58 75.2251 222.44 74.3217L224.696 74.1044C224.798 74.5476 225.016 74.8821 225.348 75.108C225.681 75.3338 226.113 75.4467 226.646 75.4467C227.195 75.4467 227.637 75.3338 227.969 75.108C228.306 74.8821 228.474 74.603 228.474 74.2706C228.474 73.9893 228.365 73.7571 228.148 73.5739C227.935 73.3906 227.602 73.25 227.151 73.152L225.476 72.8004C224.534 72.6044 223.838 72.2741 223.386 71.8097C222.934 71.3409 222.71 70.7486 222.715 70.0327C222.71 69.4276 222.874 68.9034 223.207 68.4602C223.544 68.0128 224.01 67.6676 224.607 67.4247C225.208 67.1776 225.9 67.054 226.684 67.054C227.835 67.054 228.74 67.299 229.401 67.7891C230.066 68.2791 230.477 68.9418 230.634 69.777ZM242.191 67.1818V68.9716H236.387V67.1818H242.191ZM237.838 77V66.255C237.838 65.5945 237.975 65.0447 238.247 64.6058C238.524 64.1669 238.895 63.8388 239.36 63.6214C239.824 63.4041 240.34 63.2955 240.906 63.2955C241.307 63.2955 241.663 63.3274 241.974 63.3913C242.285 63.4553 242.515 63.5128 242.664 63.5639L242.204 65.3537C242.106 65.3239 241.982 65.294 241.833 65.2642C241.684 65.2301 241.518 65.2131 241.335 65.2131C240.904 65.2131 240.6 65.3175 240.421 65.5263C240.246 65.7308 240.159 66.0249 240.159 66.4084V77H237.838ZM247.917 77.1918C246.958 77.1918 246.127 76.9808 245.424 76.5589C244.721 76.1371 244.175 75.5469 243.788 74.7884C243.404 74.0298 243.212 73.1435 243.212 72.1293C243.212 71.1151 243.404 70.2266 243.788 69.4638C244.175 68.701 244.721 68.1087 245.424 67.6868C246.127 67.2649 246.958 67.054 247.917 67.054C248.876 67.054 249.707 67.2649 250.41 67.6868C251.113 68.1087 251.656 68.701 252.04 69.4638C252.428 70.2266 252.621 71.1151 252.621 72.1293C252.621 73.1435 252.428 74.0298 252.04 74.7884C251.656 75.5469 251.113 76.1371 250.41 76.5589C249.707 76.9808 248.876 77.1918 247.917 77.1918ZM247.93 75.3381C248.45 75.3381 248.884 75.1953 249.234 74.9098C249.583 74.62 249.843 74.2322 250.013 73.7464C250.188 73.2607 250.276 72.7195 250.276 72.1229C250.276 71.522 250.188 70.9787 250.013 70.4929C249.843 70.0028 249.583 69.6129 249.234 69.3232C248.884 69.0334 248.45 68.8885 247.93 68.8885C247.397 68.8885 246.954 69.0334 246.6 69.3232C246.251 69.6129 245.989 70.0028 245.814 70.4929C245.643 70.9787 245.558 71.522 245.558 72.1229C245.558 72.7195 245.643 73.2607 245.814 73.7464C245.989 74.2322 246.251 74.62 246.6 74.9098C246.954 75.1953 247.397 75.3381 247.93 75.3381ZM260.843 72.8707V67.1818H263.157V77H260.914V75.255H260.811C260.59 75.8047 260.225 76.2543 259.718 76.6037C259.215 76.9531 258.595 77.1278 257.858 77.1278C257.215 77.1278 256.646 76.9851 256.151 76.6996C255.661 76.4098 255.278 75.9901 255.001 75.4403C254.724 74.8864 254.585 74.2173 254.585 73.4332V67.1818H256.899V73.0753C256.899 73.6974 257.07 74.1918 257.411 74.5582C257.752 74.9247 258.199 75.108 258.753 75.108C259.094 75.108 259.424 75.0249 259.744 74.8587C260.063 74.6925 260.325 74.4453 260.53 74.1172C260.739 73.7848 260.843 73.3693 260.843 72.8707ZM267.85 71.2472V77H265.537V67.1818H267.748V68.8501H267.863C268.089 68.3004 268.449 67.8636 268.944 67.5398C269.442 67.2159 270.058 67.054 270.791 67.054C271.468 67.054 272.059 67.1989 272.561 67.4886C273.069 67.7784 273.461 68.1982 273.738 68.7479C274.019 69.2976 274.157 69.9645 274.153 70.7486V77H271.839V71.1065C271.839 70.4503 271.669 69.9368 271.328 69.5661C270.991 69.1953 270.525 69.0099 269.928 69.0099C269.523 69.0099 269.163 69.0994 268.848 69.2784C268.537 69.4531 268.292 69.7067 268.113 70.0391C267.938 70.3714 267.85 70.7741 267.85 71.2472ZM280.149 77.1726C279.377 77.1726 278.687 76.9744 278.078 76.5781C277.468 76.1818 276.987 75.6065 276.633 74.8523C276.279 74.098 276.103 73.1818 276.103 72.1037C276.103 71.0128 276.282 70.0923 276.64 69.3423C277.002 68.5881 277.49 68.0192 278.103 67.6357C278.717 67.2479 279.401 67.054 280.155 67.054C280.73 67.054 281.203 67.152 281.574 67.348C281.945 67.5398 282.239 67.772 282.456 68.0447C282.674 68.3132 282.842 68.5668 282.961 68.8054H283.057V63.9091H285.377V77H283.102V75.4531H282.961C282.842 75.6918 282.669 75.9453 282.444 76.2138C282.218 76.478 281.919 76.7038 281.549 76.8913C281.178 77.0788 280.711 77.1726 280.149 77.1726ZM280.794 75.2741C281.284 75.2741 281.702 75.142 282.047 74.8778C282.392 74.6094 282.654 74.2365 282.833 73.7592C283.012 73.282 283.102 72.7259 283.102 72.0909C283.102 71.456 283.012 70.9041 282.833 70.4354C282.659 69.9666 282.399 69.6023 282.054 69.3423C281.713 69.0824 281.293 68.9524 280.794 68.9524C280.279 68.9524 279.848 69.0866 279.503 69.3551C279.158 69.6236 278.898 69.9943 278.723 70.4673C278.549 70.9403 278.461 71.4815 278.461 72.0909C278.461 72.7045 278.549 73.2521 278.723 73.7337C278.902 74.2109 279.164 74.5881 279.51 74.8651C279.859 75.1378 280.287 75.2741 280.794 75.2741Z" fill="#FAFAFA"/>
<path d="M32.1506 107H30.858L34.5966 96.8182H35.8693L39.608 107H38.3153L35.2727 98.429H35.1932L32.1506 107ZM32.6278 103.023H37.8381V104.116H32.6278V103.023ZM42.2081 96.8182V107H41.0348V96.8182H42.2081ZM45.5304 96.8182V107H44.3571V96.8182H45.5304ZM52.3725 109.864C52.1737 109.864 51.9963 109.847 51.8406 109.814C51.6848 109.784 51.5771 109.754 51.5174 109.724L51.8157 108.69C52.1007 108.763 52.3526 108.79 52.5714 108.77C52.7901 108.75 52.984 108.652 53.1531 108.477C53.3254 108.304 53.4828 108.024 53.6254 107.636L53.8441 107.04L51.0202 99.3636H52.293L54.4009 105.449H54.4805L56.5884 99.3636H57.8612L54.6197 108.114C54.4738 108.508 54.2932 108.835 54.0778 109.093C53.8623 109.355 53.6121 109.549 53.3271 109.675C53.0453 109.801 52.7272 109.864 52.3725 109.864ZM62.2386 107.159C61.5492 107.159 60.9444 106.995 60.424 106.667C59.907 106.339 59.5026 105.88 59.2109 105.29C58.9226 104.7 58.7784 104.01 58.7784 103.222C58.7784 102.426 58.9226 101.732 59.2109 101.138C59.5026 100.545 59.907 100.085 60.424 99.7564C60.9444 99.4283 61.5492 99.2642 62.2386 99.2642C62.928 99.2642 63.5313 99.4283 64.0483 99.7564C64.5687 100.085 64.973 100.545 65.2614 101.138C65.553 101.732 65.6989 102.426 65.6989 103.222C65.6989 104.01 65.553 104.7 65.2614 105.29C64.973 105.88 64.5687 106.339 64.0483 106.667C63.5313 106.995 62.928 107.159 62.2386 107.159ZM62.2386 106.105C62.7623 106.105 63.1932 105.971 63.5312 105.702C63.8693 105.434 64.1196 105.081 64.282 104.643C64.4444 104.206 64.5256 103.732 64.5256 103.222C64.5256 102.711 64.4444 102.236 64.282 101.795C64.1196 101.354 63.8693 100.998 63.5312 100.726C63.1932 100.454 62.7623 100.318 62.2386 100.318C61.715 100.318 61.2841 100.454 60.946 100.726C60.608 100.998 60.3577 101.354 60.1953 101.795C60.0329 102.236 59.9517 102.711 59.9517 103.222C59.9517 103.732 60.0329 104.206 60.1953 104.643C60.3577 105.081 60.608 105.434 60.946 105.702C61.2841 105.971 61.715 106.105 62.2386 106.105ZM72.3024 103.878V99.3636H73.4757V107H72.3024V105.707H72.2228C72.0439 106.095 71.7654 106.425 71.3876 106.697C71.0098 106.965 70.5325 107.099 69.9558 107.099C69.4785 107.099 69.0543 106.995 68.6831 106.786C68.3118 106.574 68.0202 106.256 67.8081 105.832C67.5959 105.404 67.4899 104.866 67.4899 104.216V99.3636H68.6632V104.136C68.6632 104.693 68.819 105.137 69.1305 105.469C69.4454 105.8 69.8464 105.966 70.3336 105.966C70.6253 105.966 70.9219 105.891 71.2235 105.742C71.5285 105.593 71.7837 105.364 71.9892 105.056C72.198 104.748 72.3024 104.355 72.3024 103.878ZM75.6246 107V99.3636H76.7582V100.517H76.8377C76.9769 100.139 77.2288 99.8326 77.5934 99.5973C77.958 99.362 78.369 99.2443 78.8263 99.2443C78.9125 99.2443 79.0202 99.246 79.1495 99.2493C79.2788 99.2526 79.3765 99.2576 79.4428 99.2642V100.457C79.4031 100.447 79.3119 100.433 79.1694 100.413C79.0302 100.389 78.8827 100.378 78.7269 100.378C78.3557 100.378 78.0243 100.456 77.7326 100.612C77.4442 100.764 77.2156 100.976 77.0465 101.248C76.8808 101.516 76.7979 101.823 76.7979 102.168V107H75.6246ZM87.0183 107.179C86.5344 107.179 86.0952 107.088 85.7008 106.906C85.3064 106.72 84.9932 106.453 84.7612 106.105C84.5292 105.754 84.4132 105.33 84.4132 104.832C84.4132 104.395 84.4993 104.04 84.6717 103.768C84.844 103.493 85.0744 103.278 85.3627 103.122C85.6511 102.966 85.9693 102.85 86.3173 102.774C86.6686 102.695 87.0216 102.632 87.3762 102.585C87.8403 102.526 88.2164 102.481 88.5048 102.451C88.7965 102.418 89.0086 102.363 89.1412 102.287C89.277 102.211 89.345 102.078 89.345 101.889V101.849C89.345 101.359 89.2108 100.978 88.9423 100.706C88.6771 100.434 88.2744 100.298 87.7342 100.298C87.1741 100.298 86.7349 100.421 86.4167 100.666C86.0985 100.911 85.8748 101.173 85.7456 101.452L84.6319 101.054C84.8308 100.59 85.0959 100.229 85.4274 99.9702C85.7621 99.7083 86.1267 99.526 86.5211 99.4233C86.9189 99.3172 87.31 99.2642 87.6944 99.2642C87.9397 99.2642 88.2214 99.294 88.5396 99.3537C88.8611 99.41 89.171 99.5277 89.4693 99.7067C89.7709 99.8857 90.0211 100.156 90.22 100.517C90.4189 100.878 90.5183 101.362 90.5183 101.969V107H89.345V105.966H89.2853C89.2058 106.132 89.0732 106.309 88.8876 106.498C88.702 106.687 88.4551 106.848 88.1468 106.98C87.8386 107.113 87.4624 107.179 87.0183 107.179ZM87.1973 106.125C87.6613 106.125 88.0524 106.034 88.3706 105.852C88.6921 105.669 88.934 105.434 89.0964 105.146C89.2621 104.857 89.345 104.554 89.345 104.236V103.162C89.2953 103.222 89.1859 103.276 89.0169 103.326C88.8511 103.372 88.6589 103.414 88.4402 103.45C88.2247 103.483 88.0143 103.513 87.8088 103.54C87.6066 103.563 87.4425 103.583 87.3166 103.599C87.0117 103.639 86.7266 103.704 86.4615 103.793C86.1996 103.879 85.9875 104.01 85.8251 104.186C85.666 104.358 85.5865 104.594 85.5865 104.892C85.5865 105.3 85.7373 105.608 86.0389 105.817C86.3438 106.022 86.7299 106.125 87.1973 106.125ZM95.7621 107.159C95.0462 107.159 94.4297 106.99 93.9126 106.652C93.3956 106.314 92.9979 105.848 92.7195 105.255C92.4411 104.662 92.3018 103.984 92.3018 103.222C92.3018 102.446 92.4444 101.762 92.7294 101.168C93.0178 100.572 93.4188 100.106 93.9325 99.7713C94.4496 99.4332 95.0528 99.2642 95.7422 99.2642C96.2791 99.2642 96.763 99.3636 97.1939 99.5625C97.6248 99.7614 97.9777 100.04 98.2528 100.398C98.5279 100.756 98.6986 101.173 98.7649 101.651H97.5916C97.5021 101.303 97.3033 100.994 96.995 100.726C96.6901 100.454 96.2791 100.318 95.7621 100.318C95.3047 100.318 94.9036 100.437 94.5589 100.676C94.2176 100.911 93.9508 101.245 93.7585 101.675C93.5696 102.103 93.4751 102.605 93.4751 103.182C93.4751 103.772 93.5679 104.286 93.7536 104.723C93.9425 105.161 94.2076 105.5 94.549 105.742C94.8937 105.984 95.2981 106.105 95.7621 106.105C96.067 106.105 96.3438 106.052 96.5923 105.946C96.8409 105.84 97.0514 105.688 97.2237 105.489C97.3961 105.29 97.5187 105.051 97.5916 104.773H98.7649C98.6986 105.223 98.5346 105.629 98.2727 105.991C98.0142 106.349 97.6712 106.634 97.2436 106.846C96.8194 107.055 96.3255 107.159 95.7621 107.159ZM103.801 99.3636V100.358H99.8438V99.3636H103.801ZM100.997 97.5341H102.17V104.812C102.17 105.144 102.219 105.393 102.315 105.558C102.414 105.721 102.54 105.83 102.692 105.886C102.848 105.939 103.012 105.966 103.185 105.966C103.314 105.966 103.42 105.959 103.503 105.946C103.586 105.929 103.652 105.916 103.702 105.906L103.94 106.96C103.861 106.99 103.75 107.02 103.607 107.05C103.465 107.083 103.284 107.099 103.065 107.099C102.734 107.099 102.409 107.028 102.091 106.886C101.776 106.743 101.514 106.526 101.305 106.234C101.1 105.943 100.997 105.575 100.997 105.131V97.5341ZM105.566 107V99.3636H106.739V107H105.566ZM106.163 98.0909C105.934 98.0909 105.737 98.013 105.571 97.8572C105.409 97.7015 105.327 97.5142 105.327 97.2955C105.327 97.0767 105.409 96.8894 105.571 96.7337C105.737 96.5779 105.934 96.5 106.163 96.5C106.391 96.5 106.587 96.5779 106.749 96.7337C106.915 96.8894 106.998 97.0767 106.998 97.2955C106.998 97.5142 106.915 97.7015 106.749 97.8572C106.587 98.013 106.391 98.0909 106.163 98.0909ZM115.133 99.3636L112.309 107H111.116L108.292 99.3636H109.564L111.672 105.449H111.752L113.86 99.3636H115.133ZM119.61 107.159C118.874 107.159 118.239 106.997 117.705 106.672C117.175 106.344 116.766 105.886 116.477 105.3C116.192 104.71 116.05 104.024 116.05 103.241C116.05 102.459 116.192 101.77 116.477 101.173C116.766 100.573 117.167 100.106 117.681 99.7713C118.198 99.4332 118.801 99.2642 119.49 99.2642C119.888 99.2642 120.281 99.3305 120.669 99.4631C121.056 99.5956 121.409 99.8111 121.727 100.109C122.046 100.404 122.299 100.795 122.488 101.283C122.677 101.77 122.771 102.37 122.771 103.082V103.58H116.885V102.565H121.578C121.578 102.134 121.492 101.75 121.32 101.412C121.151 101.074 120.909 100.807 120.594 100.612C120.282 100.416 119.914 100.318 119.49 100.318C119.023 100.318 118.619 100.434 118.277 100.666C117.939 100.895 117.679 101.193 117.497 101.561C117.314 101.929 117.223 102.323 117.223 102.744V103.42C117.223 103.997 117.323 104.486 117.521 104.887C117.724 105.285 118.004 105.588 118.362 105.797C118.72 106.002 119.136 106.105 119.61 106.105C119.918 106.105 120.196 106.062 120.445 105.976C120.697 105.886 120.914 105.754 121.096 105.578C121.278 105.399 121.419 105.177 121.519 104.912L122.652 105.23C122.533 105.615 122.332 105.953 122.051 106.244C121.769 106.533 121.421 106.758 121.007 106.92C120.592 107.08 120.127 107.159 119.61 107.159ZM131.596 107.159C130.907 107.159 130.302 106.995 129.781 106.667C129.264 106.339 128.86 105.88 128.568 105.29C128.28 104.7 128.136 104.01 128.136 103.222C128.136 102.426 128.28 101.732 128.568 101.138C128.86 100.545 129.264 100.085 129.781 99.7564C130.302 99.4283 130.907 99.2642 131.596 99.2642C132.285 99.2642 132.889 99.4283 133.406 99.7564C133.926 100.085 134.33 100.545 134.619 101.138C134.91 101.732 135.056 102.426 135.056 103.222C135.056 104.01 134.91 104.7 134.619 105.29C134.33 105.88 133.926 106.339 133.406 106.667C132.889 106.995 132.285 107.159 131.596 107.159ZM131.596 106.105C132.12 106.105 132.551 105.971 132.889 105.702C133.227 105.434 133.477 105.081 133.639 104.643C133.802 104.206 133.883 103.732 133.883 103.222C133.883 102.711 133.802 102.236 133.639 101.795C133.477 101.354 133.227 100.998 132.889 100.726C132.551 100.454 132.12 100.318 131.596 100.318C131.072 100.318 130.642 100.454 130.303 100.726C129.965 100.998 129.715 101.354 129.553 101.795C129.39 102.236 129.309 102.711 129.309 103.222C129.309 103.732 129.39 104.206 129.553 104.643C129.715 105.081 129.965 105.434 130.303 105.702C130.642 105.971 131.072 106.105 131.596 106.105ZM136.847 107V99.3636H137.981V100.517H138.06C138.2 100.139 138.451 99.8326 138.816 99.5973C139.181 99.362 139.592 99.2443 140.049 99.2443C140.135 99.2443 140.243 99.246 140.372 99.2493C140.501 99.2526 140.599 99.2576 140.665 99.2642V100.457C140.626 100.447 140.535 100.433 140.392 100.413C140.253 100.389 140.105 100.378 139.95 100.378C139.578 100.378 139.247 100.456 138.955 100.612C138.667 100.764 138.438 100.976 138.269 101.248C138.103 101.516 138.021 101.823 138.021 102.168V107H136.847ZM144.707 107.159C144.071 107.159 143.509 106.998 143.022 106.677C142.535 106.352 142.154 105.895 141.879 105.305C141.603 104.711 141.466 104.01 141.466 103.202C141.466 102.4 141.603 101.704 141.879 101.114C142.154 100.524 142.536 100.068 143.027 99.7464C143.518 99.425 144.084 99.2642 144.727 99.2642C145.224 99.2642 145.617 99.3471 145.906 99.5128C146.197 99.6752 146.419 99.8608 146.572 100.07C146.728 100.275 146.848 100.444 146.935 100.577H147.034V96.8182H148.207V107H147.074V105.827H146.935C146.848 105.966 146.726 106.142 146.567 106.354C146.408 106.562 146.181 106.75 145.886 106.915C145.591 107.078 145.198 107.159 144.707 107.159ZM144.866 106.105C145.337 106.105 145.735 105.982 146.06 105.737C146.384 105.489 146.631 105.146 146.8 104.708C146.969 104.267 147.054 103.759 147.054 103.182C147.054 102.612 146.971 102.113 146.805 101.685C146.64 101.254 146.394 100.92 146.07 100.681C145.745 100.439 145.344 100.318 144.866 100.318C144.369 100.318 143.955 100.446 143.624 100.701C143.295 100.953 143.049 101.296 142.883 101.73C142.72 102.161 142.639 102.645 142.639 103.182C142.639 103.725 142.722 104.219 142.888 104.663C143.057 105.104 143.305 105.455 143.634 105.717C143.965 105.976 144.376 106.105 144.866 106.105ZM153.721 107.159C152.985 107.159 152.35 106.997 151.817 106.672C151.286 106.344 150.877 105.886 150.589 105.3C150.304 104.71 150.161 104.024 150.161 103.241C150.161 102.459 150.304 101.77 150.589 101.173C150.877 100.573 151.278 100.106 151.792 99.7713C152.309 99.4332 152.912 99.2642 153.602 99.2642C153.999 99.2642 154.392 99.3305 154.78 99.4631C155.168 99.5956 155.521 99.8111 155.839 100.109C156.157 100.404 156.411 100.795 156.599 101.283C156.788 101.77 156.883 102.37 156.883 103.082V103.58H150.996V102.565H155.69C155.69 102.134 155.603 101.75 155.431 101.412C155.262 101.074 155.02 100.807 154.705 100.612C154.394 100.416 154.026 100.318 153.602 100.318C153.134 100.318 152.73 100.434 152.388 100.666C152.05 100.895 151.79 101.193 151.608 101.561C151.426 101.929 151.335 102.323 151.335 102.744V103.42C151.335 103.997 151.434 104.486 151.633 104.887C151.835 105.285 152.115 105.588 152.473 105.797C152.831 106.002 153.247 106.105 153.721 106.105C154.029 106.105 154.308 106.062 154.556 105.976C154.808 105.886 155.025 105.754 155.207 105.578C155.39 105.399 155.531 105.177 155.63 104.912L156.763 105.23C156.644 105.615 156.444 105.953 156.162 106.244C155.88 106.533 155.532 106.758 155.118 106.92C154.704 107.08 154.238 107.159 153.721 107.159ZM158.668 107V99.3636H159.801V100.517H159.881C160.02 100.139 160.272 99.8326 160.636 99.5973C161.001 99.362 161.412 99.2443 161.869 99.2443C161.955 99.2443 162.063 99.246 162.192 99.2493C162.322 99.2526 162.42 99.2576 162.486 99.2642V100.457C162.446 100.447 162.355 100.433 162.212 100.413C162.073 100.389 161.926 100.378 161.77 100.378C161.399 100.378 161.067 100.456 160.776 100.612C160.487 100.764 160.259 100.976 160.089 101.248C159.924 101.516 159.841 101.823 159.841 102.168V107H158.668ZM169.286 101.074L168.232 101.372C168.165 101.196 168.068 101.026 167.938 100.86C167.812 100.691 167.64 100.552 167.421 100.442C167.203 100.333 166.923 100.278 166.581 100.278C166.114 100.278 165.724 100.386 165.413 100.602C165.105 100.814 164.95 101.084 164.95 101.412C164.95 101.704 165.057 101.934 165.269 102.103C165.481 102.272 165.812 102.413 166.263 102.526L167.396 102.804C168.079 102.97 168.588 103.223 168.923 103.565C169.258 103.903 169.425 104.339 169.425 104.872C169.425 105.31 169.299 105.701 169.047 106.045C168.798 106.39 168.45 106.662 168.003 106.861C167.556 107.06 167.035 107.159 166.442 107.159C165.663 107.159 165.018 106.99 164.508 106.652C163.998 106.314 163.674 105.82 163.539 105.17L164.652 104.892C164.758 105.303 164.959 105.611 165.254 105.817C165.552 106.022 165.941 106.125 166.422 106.125C166.969 106.125 167.403 106.009 167.725 105.777C168.049 105.542 168.212 105.26 168.212 104.932C168.212 104.667 168.119 104.445 167.933 104.266C167.748 104.083 167.463 103.947 167.078 103.858L165.806 103.56C165.106 103.394 164.593 103.137 164.264 102.789C163.94 102.438 163.777 101.999 163.777 101.472C163.777 101.041 163.898 100.66 164.14 100.328C164.385 99.9967 164.718 99.7365 165.139 99.5476C165.564 99.3587 166.044 99.2642 166.581 99.2642C167.337 99.2642 167.93 99.4299 168.361 99.7614C168.795 100.093 169.103 100.53 169.286 101.074ZM176.859 107L174.532 99.3636H175.765L177.415 105.21H177.495L179.126 99.3636H180.379L181.989 105.19H182.069L183.719 99.3636H184.952L182.626 107H181.472L179.802 101.134H179.683L178.012 107H176.859ZM186.504 107V99.3636H187.677V107H186.504ZM187.1 98.0909C186.871 98.0909 186.674 98.013 186.509 97.8572C186.346 97.7015 186.265 97.5142 186.265 97.2955C186.265 97.0767 186.346 96.8894 186.509 96.7337C186.674 96.5779 186.871 96.5 187.1 96.5C187.329 96.5 187.524 96.5779 187.687 96.7337C187.853 96.8894 187.935 97.0767 187.935 97.2955C187.935 97.5142 187.853 97.7015 187.687 97.8572C187.524 98.013 187.329 98.0909 187.1 98.0909ZM190.999 96.8182V107H189.826V96.8182H190.999ZM194.321 96.8182V107H193.148V96.8182H194.321ZM200.567 107V96.8182H201.74V100.577H201.84C201.926 100.444 202.045 100.275 202.198 100.07C202.353 99.8608 202.575 99.6752 202.864 99.5128C203.155 99.3471 203.55 99.2642 204.047 99.2642C204.69 99.2642 205.257 99.425 205.747 99.7464C206.238 100.068 206.621 100.524 206.896 101.114C207.171 101.704 207.308 102.4 207.308 103.202C207.308 104.01 207.171 104.711 206.896 105.305C206.621 105.895 206.24 106.352 205.752 106.677C205.265 106.998 204.703 107.159 204.067 107.159C203.576 107.159 203.184 107.078 202.889 106.915C202.594 106.75 202.367 106.562 202.208 106.354C202.048 106.142 201.926 105.966 201.84 105.827H201.7V107H200.567ZM201.72 103.182C201.72 103.759 201.805 104.267 201.974 104.708C202.143 105.146 202.39 105.489 202.715 105.737C203.039 105.982 203.437 106.105 203.908 106.105C204.398 106.105 204.808 105.976 205.136 105.717C205.467 105.455 205.716 105.104 205.882 104.663C206.051 104.219 206.135 103.725 206.135 103.182C206.135 102.645 206.052 102.161 205.887 101.73C205.724 101.296 205.477 100.953 205.146 100.701C204.818 100.446 204.405 100.318 203.908 100.318C203.431 100.318 203.03 100.439 202.705 100.681C202.38 100.92 202.135 101.254 201.969 101.685C201.803 102.113 201.72 102.612 201.72 103.182ZM212.305 107.159C211.569 107.159 210.934 106.997 210.401 106.672C209.87 106.344 209.461 105.886 209.173 105.3C208.888 104.71 208.745 104.024 208.745 103.241C208.745 102.459 208.888 101.77 209.173 101.173C209.461 100.573 209.862 100.106 210.376 99.7713C210.893 99.4332 211.496 99.2642 212.186 99.2642C212.583 99.2642 212.976 99.3305 213.364 99.4631C213.752 99.5956 214.105 99.8111 214.423 100.109C214.741 100.404 214.994 100.795 215.183 101.283C215.372 101.77 215.467 102.37 215.467 103.082V103.58H209.58V102.565H214.274C214.274 102.134 214.187 101.75 214.015 101.412C213.846 101.074 213.604 100.807 213.289 100.612C212.978 100.416 212.61 100.318 212.186 100.318C211.718 100.318 211.314 100.434 210.972 100.666C210.634 100.895 210.374 101.193 210.192 101.561C210.01 101.929 209.919 102.323 209.919 102.744V103.42C209.919 103.997 210.018 104.486 210.217 104.887C210.419 105.285 210.699 105.588 211.057 105.797C211.415 106.002 211.831 106.105 212.305 106.105C212.613 106.105 212.892 106.062 213.14 105.976C213.392 105.886 213.609 105.754 213.791 105.578C213.974 105.399 214.115 105.177 214.214 104.912L215.347 105.23C215.228 105.615 215.028 105.953 214.746 106.244C214.464 106.533 214.116 106.758 213.702 106.92C213.288 107.08 212.822 107.159 212.305 107.159ZM226.598 101.074L225.544 101.372C225.478 101.196 225.38 101.026 225.251 100.86C225.125 100.691 224.953 100.552 224.734 100.442C224.515 100.333 224.235 100.278 223.894 100.278C223.426 100.278 223.037 100.386 222.725 100.602C222.417 100.814 222.263 101.084 222.263 101.412C222.263 101.704 222.369 101.934 222.581 102.103C222.793 102.272 223.125 102.413 223.575 102.526L224.709 102.804C225.392 102.97 225.901 103.223 226.235 103.565C226.57 103.903 226.737 104.339 226.737 104.872C226.737 105.31 226.611 105.701 226.36 106.045C226.111 106.39 225.763 106.662 225.316 106.861C224.868 107.06 224.348 107.159 223.754 107.159C222.976 107.159 222.331 106.99 221.82 106.652C221.31 106.314 220.987 105.82 220.851 105.17L221.965 104.892C222.071 105.303 222.271 105.611 222.566 105.817C222.865 106.022 223.254 106.125 223.735 106.125C224.281 106.125 224.716 106.009 225.037 105.777C225.362 105.542 225.524 105.26 225.524 104.932C225.524 104.667 225.432 104.445 225.246 104.266C225.06 104.083 224.775 103.947 224.391 103.858L223.118 103.56C222.419 103.394 221.905 103.137 221.577 102.789C221.252 102.438 221.09 101.999 221.09 101.472C221.09 101.041 221.211 100.66 221.453 100.328C221.698 99.9967 222.031 99.7365 222.452 99.5476C222.876 99.3587 223.357 99.2642 223.894 99.2642C224.649 99.2642 225.243 99.4299 225.673 99.7614C226.108 100.093 226.416 100.53 226.598 101.074ZM229.677 102.406V107H228.504V96.8182H229.677V100.557H229.776C229.955 100.162 230.224 99.8492 230.582 99.6172C230.943 99.3819 231.424 99.2642 232.023 99.2642C232.544 99.2642 233 99.3686 233.391 99.5774C233.782 99.7829 234.085 100.099 234.3 100.527C234.519 100.951 234.629 101.491 234.629 102.148V107H233.455V102.227C233.455 101.621 233.298 101.152 232.983 100.82C232.671 100.486 232.239 100.318 231.685 100.318C231.301 100.318 230.956 100.399 230.651 100.562C230.35 100.724 230.111 100.961 229.935 101.273C229.763 101.584 229.677 101.962 229.677 102.406ZM239.877 107.159C239.188 107.159 238.583 106.995 238.063 106.667C237.546 106.339 237.141 105.88 236.85 105.29C236.561 104.7 236.417 104.01 236.417 103.222C236.417 102.426 236.561 101.732 236.85 101.138C237.141 100.545 237.546 100.085 238.063 99.7564C238.583 99.4283 239.188 99.2642 239.877 99.2642C240.567 99.2642 241.17 99.4283 241.687 99.7564C242.207 100.085 242.612 100.545 242.9 101.138C243.192 101.732 243.338 102.426 243.338 103.222C243.338 104.01 243.192 104.7 242.9 105.29C242.612 105.88 242.207 106.339 241.687 106.667C241.17 106.995 240.567 107.159 239.877 107.159ZM239.877 106.105C240.401 106.105 240.832 105.971 241.17 105.702C241.508 105.434 241.758 105.081 241.921 104.643C242.083 104.206 242.164 103.732 242.164 103.222C242.164 102.711 242.083 102.236 241.921 101.795C241.758 101.354 241.508 100.998 241.17 100.726C240.832 100.454 240.401 100.318 239.877 100.318C239.354 100.318 238.923 100.454 238.585 100.726C238.247 100.998 237.996 101.354 237.834 101.795C237.672 102.236 237.59 102.711 237.59 103.222C237.59 103.732 237.672 104.206 237.834 104.643C237.996 105.081 238.247 105.434 238.585 105.702C238.923 105.971 239.354 106.105 239.877 106.105ZM246.599 107L244.272 99.3636H245.505L247.156 105.21H247.235L248.866 99.3636H250.119L251.73 105.19H251.809L253.46 99.3636H254.693L252.366 107H251.213L249.542 101.134H249.423L247.752 107H246.599ZM257.417 102.406V107H256.244V99.3636H257.377V100.557H257.477C257.656 100.169 257.927 99.8575 258.292 99.6222C258.657 99.3835 259.127 99.2642 259.704 99.2642C260.221 99.2642 260.673 99.3703 261.061 99.5824C261.449 99.7912 261.751 100.109 261.966 100.537C262.182 100.961 262.289 101.498 262.289 102.148V107H261.116V102.227C261.116 101.627 260.96 101.16 260.649 100.825C260.337 100.487 259.91 100.318 259.366 100.318C258.991 100.318 258.657 100.399 258.362 100.562C258.07 100.724 257.84 100.961 257.671 101.273C257.502 101.584 257.417 101.962 257.417 102.406ZM269.544 102.406V107H268.371V96.8182H269.544V100.557H269.643C269.822 100.162 270.091 99.8492 270.449 99.6172C270.81 99.3819 271.291 99.2642 271.891 99.2642C272.411 99.2642 272.867 99.3686 273.258 99.5774C273.649 99.7829 273.952 100.099 274.168 100.527C274.386 100.951 274.496 101.491 274.496 102.148V107H273.322V102.227C273.322 101.621 273.165 101.152 272.85 100.82C272.539 100.486 272.106 100.318 271.553 100.318C271.168 100.318 270.823 100.399 270.518 100.562C270.217 100.724 269.978 100.961 269.803 101.273C269.63 101.584 269.544 101.962 269.544 102.406ZM279.844 107.159C279.108 107.159 278.473 106.997 277.94 106.672C277.41 106.344 277 105.886 276.712 105.3C276.427 104.71 276.284 104.024 276.284 103.241C276.284 102.459 276.427 101.77 276.712 101.173C277 100.573 277.401 100.106 277.915 99.7713C278.432 99.4332 279.035 99.2642 279.725 99.2642C280.122 99.2642 280.515 99.3305 280.903 99.4631C281.291 99.5956 281.644 99.8111 281.962 100.109C282.28 100.404 282.534 100.795 282.722 101.283C282.911 101.77 283.006 102.37 283.006 103.082V103.58H277.119V102.565H281.813C281.813 102.134 281.727 101.75 281.554 101.412C281.385 101.074 281.143 100.807 280.828 100.612C280.517 100.416 280.149 100.318 279.725 100.318C279.257 100.318 278.853 100.434 278.512 100.666C278.173 100.895 277.913 101.193 277.731 101.561C277.549 101.929 277.458 102.323 277.458 102.744V103.42C277.458 103.997 277.557 104.486 277.756 104.887C277.958 105.285 278.238 105.588 278.596 105.797C278.954 106.002 279.37 106.105 279.844 106.105C280.152 106.105 280.431 106.062 280.679 105.976C280.931 105.886 281.148 105.754 281.33 105.578C281.513 105.399 281.654 105.177 281.753 104.912L282.887 105.23C282.767 105.615 282.567 105.953 282.285 106.244C282.003 106.533 281.655 106.758 281.241 106.92C280.827 107.08 280.361 107.159 279.844 107.159ZM284.791 107V99.3636H285.924V100.517H286.004C286.143 100.139 286.395 99.8326 286.759 99.5973C287.124 99.362 287.535 99.2443 287.992 99.2443C288.079 99.2443 288.186 99.246 288.316 99.2493C288.445 99.2526 288.543 99.2576 288.609 99.2642V100.457C288.569 100.447 288.478 100.433 288.335 100.413C288.196 100.389 288.049 100.378 287.893 100.378C287.522 100.378 287.19 100.456 286.899 100.612C286.61 100.764 286.382 100.976 286.213 101.248C286.047 101.516 285.964 101.823 285.964 102.168V107H284.791ZM292.969 107.159C292.233 107.159 291.598 106.997 291.065 106.672C290.535 106.344 290.125 105.886 289.837 105.3C289.552 104.71 289.409 104.024 289.409 103.241C289.409 102.459 289.552 101.77 289.837 101.173C290.125 100.573 290.526 100.106 291.04 99.7713C291.557 99.4332 292.16 99.2642 292.85 99.2642C293.247 99.2642 293.64 99.3305 294.028 99.4631C294.416 99.5956 294.769 99.8111 295.087 100.109C295.405 100.404 295.659 100.795 295.847 101.283C296.036 101.77 296.131 102.37 296.131 103.082V103.58H290.244V102.565H294.938C294.938 102.134 294.852 101.75 294.679 101.412C294.51 101.074 294.268 100.807 293.953 100.612C293.642 100.416 293.274 100.318 292.85 100.318C292.382 100.318 291.978 100.434 291.637 100.666C291.298 100.895 291.038 101.193 290.856 101.561C290.674 101.929 290.583 102.323 290.583 102.744V103.42C290.583 103.997 290.682 104.486 290.881 104.887C291.083 105.285 291.363 105.588 291.721 105.797C292.079 106.002 292.495 106.105 292.969 106.105C293.277 106.105 293.556 106.062 293.804 105.976C294.056 105.886 294.273 105.754 294.455 105.578C294.638 105.399 294.779 105.177 294.878 104.912L296.012 105.23C295.892 105.615 295.692 105.953 295.41 106.244C295.128 106.533 294.78 106.758 294.366 106.92C293.952 107.08 293.486 107.159 292.969 107.159Z" fill="#A1A1AA"/>
</svg>
