<svg width="84" height="18" viewBox="0 0 84 18" fill="none" xmlns="http://www.w3.org/2000/svg">
<path d="M16.7258 3.03568C16.718 2.39636 15.8695 2.17891 15.5551 2.73561L8.84478 14.6163C8.44183 15.3388 8.91452 16.236 9.74015 16.3158L16.2037 16.9403C16.5745 16.9762 16.8943 16.6821 16.8897 16.3096L16.7258 3.03568Z" fill="#F58762"/>
<path d="M1.15149 1.0567H11.7664C12.7589 1.0567 13.2864 2.22433 12.6285 2.9648L1.10028 16.3362C0.721448 16.7756 0.00041305 16.5077 0.000396296 15.9275L4.84122e-10 2.20418C-1.82399e-05 1.57045 0.515526 1.0567 1.15149 1.0567Z" fill="#F58762"/>
<path d="M31.5325 2.81693V4.79711H28.1867V14H25.8347V4.79711H22.4738V2.81693H31.5325ZM35.7283 7.72565C34.8584 7.72565 34.2742 8.00889 33.9758 8.57538C33.8089 8.89403 33.7254 9.38465 33.7254 10.0472V14H31.548V5.7303H33.6116V7.17181C33.9454 6.62049 34.2363 6.24368 34.4841 6.04136C34.8887 5.70248 35.4148 5.53304 36.0622 5.53304C36.1026 5.53304 36.1355 5.53557 36.1608 5.54063C36.1911 5.54063 36.2544 5.54315 36.3505 5.54821V7.76358C36.2139 7.74841 36.0925 7.73829 35.9863 7.73323C35.8801 7.72818 35.7941 7.72565 35.7283 7.72565ZM37.6254 6.62555C38.1969 5.89721 39.1781 5.53304 40.5691 5.53304C41.4744 5.53304 42.2787 5.71259 42.9817 6.07171C43.6848 6.43082 44.0363 7.10858 44.0363 8.10499V11.8984C44.0363 12.1614 44.0413 12.4801 44.0515 12.8544C44.0666 13.1376 44.1096 13.3298 44.1804 13.431C44.2512 13.5321 44.3575 13.6156 44.4991 13.6814V14H42.1472C42.0814 13.8331 42.0359 13.6763 42.0106 13.5296C41.9853 13.3829 41.9651 13.216 41.9499 13.0289C41.6515 13.3526 41.3075 13.6282 40.9181 13.8558C40.4527 14.1239 39.9267 14.258 39.34 14.258C38.5914 14.258 37.9718 14.0455 37.4812 13.6207C36.9957 13.1907 36.7529 12.5838 36.7529 11.7998C36.7529 10.7832 37.1449 10.0472 37.9288 9.59202C38.3588 9.34418 38.991 9.16716 39.8256 9.06094L40.5615 8.9699C40.9611 8.91932 41.2468 8.85609 41.4188 8.78022C41.7273 8.64872 41.8816 8.44387 41.8816 8.16569C41.8816 7.82681 41.7627 7.59414 41.525 7.46769C41.2924 7.33619 40.9484 7.27043 40.4932 7.27043C39.9824 7.27043 39.6207 7.39688 39.4083 7.64978C39.2565 7.83692 39.1554 8.08982 39.1048 8.40847H37.0184C37.0639 7.68518 37.2663 7.09088 37.6254 6.62555ZM39.2338 12.4371C39.4361 12.604 39.6839 12.6875 39.9773 12.6875C40.4426 12.6875 40.87 12.5509 41.2595 12.2778C41.654 12.0046 41.8588 11.5064 41.874 10.7832V9.97895C41.7375 10.0649 41.5984 10.1357 41.4567 10.1914C41.3202 10.242 41.1305 10.29 40.8877 10.3355L40.4022 10.4266C39.947 10.5075 39.6207 10.6061 39.4235 10.7225C39.0896 10.9197 38.9227 11.2257 38.9227 11.6405C38.9227 12.0097 39.0264 12.2752 39.2338 12.4371ZM53.1788 2.83211V14H51.0772V12.8544C50.7687 13.345 50.4172 13.7016 50.0226 13.9241C49.6281 14.1467 49.1375 14.258 48.5508 14.258C47.5847 14.258 46.7704 13.8685 46.1078 13.0896C45.4503 12.3056 45.1215 11.3016 45.1215 10.0776C45.1215 8.66642 45.4452 7.55621 46.0926 6.74694C46.7451 5.93767 47.6151 5.53304 48.7025 5.53304C49.2033 5.53304 49.6484 5.64431 50.0378 5.86686C50.4273 6.08435 50.7434 6.38783 50.9862 6.77729V2.83211H53.1788ZM47.3521 9.91826C47.3521 10.682 47.5038 11.2915 47.8073 11.7467C48.1057 12.207 48.5609 12.4371 49.1729 12.4371C49.7849 12.4371 50.2502 12.2095 50.5689 11.7543C50.8875 11.2991 51.0469 10.7098 51.0469 9.98654C51.0469 8.97495 50.7914 8.25167 50.2806 7.81669C49.967 7.55368 49.6028 7.42217 49.1881 7.42217C48.5558 7.42217 48.0905 7.66242 47.7921 8.14293C47.4987 8.61837 47.3521 9.21015 47.3521 9.91826ZM61.9192 11.5722C61.8635 12.0628 61.6081 12.561 61.1529 13.0668C60.4448 13.871 59.4534 14.2731 58.1788 14.2731C57.1268 14.2731 56.1987 13.9342 55.3945 13.2565C54.5902 12.5787 54.1881 11.4761 54.1881 9.9486C54.1881 8.51721 54.5498 7.41964 55.2731 6.6559C56.0014 5.89215 56.9447 5.51028 58.103 5.51028C58.7908 5.51028 59.4104 5.63926 59.9618 5.89721C60.5131 6.15516 60.9683 6.56233 61.3274 7.1187C61.6511 7.60932 61.861 8.17833 61.9571 8.82575C62.0127 9.20509 62.0355 9.75135 62.0254 10.4645H56.3656C56.3959 11.294 56.6564 11.8757 57.147 12.2095C57.4454 12.4169 57.8046 12.5206 58.2244 12.5206C58.6695 12.5206 59.0311 12.3941 59.3093 12.1412C59.461 12.0046 59.5951 11.815 59.7114 11.5722H61.9192ZM59.7797 9.03818C59.7443 8.46663 59.5698 8.03418 59.2562 7.74082C58.9476 7.4424 58.5632 7.2932 58.103 7.2932C57.6022 7.2932 57.2128 7.44999 56.9346 7.76358C56.6615 8.07717 56.4895 8.50204 56.4187 9.03818H59.7797ZM71.2665 14H62.5644V12.0274L68.338 4.79711H62.7085V2.81693H71.2513V4.69089L65.4019 12.0274H71.2665V14ZM82.4499 14H79.4455L75.9934 9.11405L74.8782 10.2597V14H72.5794V2.81693H74.8782V7.42217L79.1951 2.81693H82.2147L77.6322 7.42217L82.4499 14Z" fill="#F58762"/>
</svg>
