<svg width="103" height="22" viewBox="0 0 103 22" fill="none" xmlns="http://www.w3.org/2000/svg">
<path d="M20.5815 3.66076C20.5718 2.87406 19.5278 2.60648 19.1409 3.29153L10.8837 17.911C10.3879 18.8001 10.9695 19.9041 11.9855 20.0023L19.9391 20.7708C20.3953 20.8148 20.7889 20.4531 20.7832 19.9947L20.5815 3.66076Z" fill="white"/>
<path d="M1.41693 1.22559H14.4788C15.7001 1.22559 16.3493 2.66238 15.5396 3.57355L1.35392 20.0273C0.887759 20.568 0.000508267 20.2384 0.000487652 19.5245L5.95723e-10 2.63758C-2.24446e-05 1.85777 0.634366 1.22559 1.41693 1.22559Z" fill="white"/>
<path d="M38.8013 4.23898V6.67563H34.6842V18H31.79V6.67563H27.6543V4.23898H38.8013ZM43.9643 10.2793C42.8938 10.2793 42.175 10.6278 41.8078 11.3249C41.6024 11.717 41.4997 12.3207 41.4997 13.136V18H38.8203V7.82394H41.3597V9.59775C41.7704 8.91935 42.1283 8.45567 42.4333 8.20671C42.9312 7.78971 43.5785 7.58121 44.3751 7.58121C44.4249 7.58121 44.4654 7.58432 44.4965 7.59055C44.5338 7.59055 44.6116 7.59366 44.7299 7.59988V10.3259C44.5618 10.3073 44.4125 10.2948 44.2818 10.2886C44.1511 10.2824 44.0453 10.2793 43.9643 10.2793ZM46.2987 8.92557C47.002 8.02933 48.2094 7.58121 49.921 7.58121C51.0351 7.58121 52.0247 7.80216 52.8898 8.24405C53.7549 8.68595 54.1875 9.51995 54.1875 10.7461V15.414C54.1875 15.7376 54.1937 16.1297 54.2061 16.5903C54.2248 16.9388 54.2777 17.1753 54.3648 17.2998C54.452 17.4243 54.5827 17.527 54.7569 17.6079V18H51.8628C51.7819 17.7946 51.7259 17.6017 51.6948 17.4212C51.6637 17.2407 51.6388 17.0353 51.6201 16.805C51.2529 17.2033 50.8297 17.5425 50.3504 17.8226C49.7778 18.1525 49.1305 18.3174 48.4086 18.3174C47.4874 18.3174 46.725 18.056 46.1213 17.5332C45.5238 17.0042 45.2251 16.2573 45.2251 15.2926C45.2251 14.0416 45.7074 13.136 46.6721 12.5759C47.2011 12.2709 47.9791 12.0531 49.0061 11.9224L49.9116 11.8103C50.4033 11.7481 50.755 11.6703 50.9666 11.5769C51.3463 11.4151 51.5361 11.1631 51.5361 10.8207C51.5361 10.4037 51.3898 10.1174 51.0973 9.96185C50.811 9.80003 50.3878 9.71912 49.8276 9.71912C49.199 9.71912 48.754 9.87471 48.4926 10.1859C48.3059 10.4162 48.1814 10.7274 48.1192 11.1195H45.5518C45.6078 10.2295 45.8568 9.49817 46.2987 8.92557ZM48.2779 16.0768C48.5268 16.2822 48.8318 16.3849 49.1928 16.3849C49.7654 16.3849 50.2913 16.2169 50.7705 15.8808C51.256 15.5447 51.5081 14.9316 51.5267 14.0416V13.052C51.3587 13.1578 51.1875 13.2449 51.0133 13.3134C50.8452 13.3757 50.6118 13.4348 50.3131 13.4908L49.7156 13.6028C49.1554 13.7024 48.754 13.8238 48.5113 13.9669C48.1005 14.2097 47.8951 14.5862 47.8951 15.0966C47.8951 15.5509 48.0227 15.8777 48.2779 16.0768ZM65.4375 4.25765V18H62.8515V16.5903C62.4718 17.194 62.0393 17.6328 61.5538 17.9066C61.0683 18.1805 60.4646 18.3174 59.7427 18.3174C58.5539 18.3174 57.5518 17.8382 56.7365 16.8797C55.9274 15.915 55.5229 14.6796 55.5229 13.1734C55.5229 11.4369 55.9212 10.0708 56.7178 9.07494C57.5207 8.07912 58.5912 7.58121 59.9294 7.58121C60.5455 7.58121 61.0932 7.71814 61.5725 7.99199C62.0517 8.25961 62.4407 8.63305 62.7395 9.11229V4.25765H65.4375ZM58.2676 12.9773C58.2676 13.9171 58.4543 14.6671 58.8277 15.2273C59.1949 15.7936 59.7551 16.0768 60.5082 16.0768C61.2613 16.0768 61.8339 15.7967 62.226 15.2366C62.6181 14.6764 62.8141 13.9514 62.8141 13.0613C62.8141 11.8166 62.4998 10.9266 61.8712 10.3913C61.4853 10.0677 61.0372 9.90583 60.5269 9.90583C59.7489 9.90583 59.1763 10.2015 58.8091 10.7927C58.4481 11.3778 58.2676 12.106 58.2676 12.9773ZM76.1928 15.0125C76.1243 15.6163 75.81 16.2293 75.2498 16.8517C74.3785 17.8413 73.1586 18.3361 71.5902 18.3361C70.2956 18.3361 69.1535 17.9191 68.1639 17.0851C67.1743 16.2511 66.6795 14.8943 66.6795 13.0147C66.6795 11.2533 67.1246 9.90272 68.0146 8.96291C68.9108 8.02311 70.0716 7.5532 71.4968 7.5532C72.3433 7.5532 73.1057 7.71191 73.7841 8.02933C74.4625 8.34675 75.0227 8.84777 75.4646 9.5324C75.8629 10.1361 76.1212 10.8363 76.2394 11.633C76.3079 12.0998 76.3359 12.7719 76.3235 13.6495H69.3589C69.3963 14.6702 69.7168 15.386 70.3205 15.7967C70.6877 16.0519 71.1296 16.1795 71.6462 16.1795C72.1939 16.1795 72.6389 16.0239 72.9812 15.7127C73.168 15.5447 73.3329 15.3113 73.476 15.0125H76.1928ZM73.5601 11.8944C73.5165 11.1911 73.3018 10.6589 72.9159 10.2979C72.5362 9.93073 72.0632 9.74712 71.4968 9.74712C70.8807 9.74712 70.4014 9.94006 70.0591 10.3259C69.723 10.7118 69.5114 11.2346 69.4243 11.8944H73.5601ZM87.6949 18H76.9867V15.5727L84.0912 6.67563H77.1641V4.23898H87.6762V6.54493L80.4783 15.5727H87.6949V18ZM101.456 18H97.7593L93.5115 11.9877L92.1391 13.3974V18H89.3104V4.23898H92.1391V9.90583L97.4512 4.23898H101.167L95.528 9.90583L101.456 18Z" fill="white"/>
</svg>
